<svg width="15" height="23" viewBox="0 0 15 23" fill="none" xmlns="http://www.w3.org/2000/svg">
<path d="M7.5 11.5C7.5 10.4833 7.89509 9.50831 8.59835 8.78942C9.30161 8.07053 10.2554 7.66667 11.25 7.66667C12.2446 7.66667 13.1984 8.07053 13.9016 8.78942C14.6049 9.50831 15 10.4833 15 11.5C15 12.5167 14.6049 13.4917 13.9016 14.2106C13.1984 14.9295 12.2446 15.3333 11.25 15.3333C10.2554 15.3333 9.30161 14.9295 8.59835 14.2106C7.89509 13.4917 7.5 12.5167 7.5 11.5ZM0 19.1667C0 18.15 0.395088 17.175 1.09835 16.4561C1.80161 15.7372 2.75544 15.3333 3.75 15.3333H7.5V19.1667C7.5 20.1833 7.10491 21.1584 6.40165 21.8772C5.69839 22.5961 4.74456 23 3.75 23C2.75544 23 1.80161 22.5961 1.09835 21.8772C0.395088 21.1584 0 20.1833 0 19.1667ZM7.5 0V7.66667H11.25C12.2446 7.66667 13.1984 7.2628 13.9016 6.54391C14.6049 5.82502 15 4.85 15 3.83333C15 2.81667 14.6049 1.84165 13.9016 1.12276C13.1984 0.403868 12.2446 0 11.25 0L7.5 0ZM0 3.83333C0 4.85 0.395088 5.82502 1.09835 6.54391C1.80161 7.2628 2.75544 7.66667 3.75 7.66667H7.5V0H3.75C2.75544 0 1.80161 0.403868 1.09835 1.12276C0.395088 1.84165 0 2.81667 0 3.83333ZM0 11.5C0 12.5167 0.395088 13.4917 1.09835 14.2106C1.80161 14.9295 2.75544 15.3333 3.75 15.3333H7.5V7.66667H3.75C2.75544 7.66667 1.80161 8.07053 1.09835 8.78942C0.395088 9.50831 0 10.4833 0 11.5Z" fill="#2e00b0"/>
</svg>
