<svg width="22" height="23" viewBox="0 0 22 23" fill="none" xmlns="http://www.w3.org/2000/svg">
<path d="M21.5841 10.4747L11.9782 0.433402C11.4245 -0.144467 10.528 -0.144467 9.97252 0.433402L7.98242 2.51776L10.5124 5.16273C11.1037 4.95669 11.7765 5.09564 12.244 5.58535C12.717 6.07888 12.8472 6.79092 12.6455 7.40616L15.0821 9.9553C15.6733 9.7416 16.3535 9.88055 16.8238 10.3722C17.4847 11.0622 17.4847 12.1777 16.8238 12.8676C16.1647 13.5567 15.0995 13.5567 14.4404 12.8676C13.9463 12.3492 13.8226 11.5864 14.0701 10.9548L11.7885 8.58202V14.8351C11.9498 14.9175 12.102 15.0296 12.2358 15.1686C12.8894 15.8595 12.8894 16.9731 12.2358 17.6602C11.5767 18.3512 10.5042 18.3512 9.84419 17.6602C9.1851 16.9712 9.1851 15.8595 9.84419 15.1705C10.011 14.998 10.1989 14.8677 10.3988 14.7814V8.46703C10.1999 8.37982 10.0101 8.25428 9.84877 8.08274C9.34918 7.56045 9.2291 6.79667 9.48577 6.15747L6.99974 3.54604L0.412504 10.4278C-0.137501 11.0075 -0.137501 11.9457 0.412504 12.5255L10.0193 22.5659C10.5729 23.1447 11.4695 23.1447 12.0231 22.5659L21.5841 12.5706C22.1386 11.9927 22.1386 11.0545 21.5841 10.4747Z" fill="#2e00b0"/>
</svg>
