<svg width="23" height="23" viewBox="0 0 23 23" fill="none" xmlns="http://www.w3.org/2000/svg">
<path d="M11.5 0C5.14625 0 0 5.27986 0 11.792C0 17.0031 3.29475 21.4221 7.86312 22.9796C8.43812 23.0907 8.64896 22.7261 8.64896 22.4126C8.64896 22.1326 8.63938 21.3907 8.63458 20.408C5.43567 21.1194 4.761 18.8259 4.761 18.8259C4.23775 17.4649 3.48162 17.1013 3.48162 17.1013C2.43992 16.3702 3.56212 16.385 3.56212 16.385C4.71692 16.4675 5.32354 17.5995 5.32354 17.5995C6.34896 19.4027 8.0155 18.8819 8.67292 18.5802C8.77642 17.8177 9.07254 17.2979 9.40125 17.0031C6.84729 16.7083 4.163 15.6941 4.163 11.1759C4.163 9.88856 4.60862 8.83711 5.34654 8.01167C5.21717 7.71392 4.82904 6.51507 5.44717 4.89073C5.44717 4.89073 6.41029 4.57431 8.60967 6.0994C9.52967 5.83703 10.5072 5.70732 11.4847 5.70142C12.4622 5.70732 13.4397 5.83703 14.3597 6.0994C16.5447 4.57431 17.5078 4.89073 17.5078 4.89073C18.1259 6.51507 17.7378 7.71392 17.6228 8.01167C18.3559 8.83711 18.8015 9.88856 18.8015 11.1759C18.8015 15.7059 16.1134 16.7033 13.5547 16.9932C13.9572 17.347 14.3309 18.0702 14.3309 19.1747C14.3309 20.7529 14.3165 22.0205 14.3165 22.4038C14.3165 22.7133 14.5178 23.0818 15.1072 22.9639C19.7081 21.4172 23 16.9952 23 11.792C23 5.27986 17.8509 0 11.5 0Z" fill="#2e00b0"/>
</svg>
