<svg width="20" height="27" viewBox="0 0 20 27" fill="none" xmlns="http://www.w3.org/2000/svg">
<path d="M4.67886 24.9761C4.67886 25.5127 4.47248 26.0273 4.10508 26.4068C3.73769 26.7863 3.23935 26.9997 2.71963 27C2.19972 27 1.7011 26.7868 1.33347 26.4072C0.965834 26.0277 0.759299 25.5129 0.759299 24.9761C0.759299 24.4394 0.965834 23.9246 1.33347 23.545C1.7011 23.1655 2.19972 22.9523 2.71963 22.9523C3.23935 22.9526 3.73769 23.1659 4.10508 23.5454C4.47248 23.9249 4.67886 24.4396 4.67886 24.9761ZM19.4308 1.60538C19.4309 1.81629 19.3908 2.02517 19.3128 2.22007C19.2347 2.41497 19.1202 2.59208 18.9758 2.74127C18.8314 2.89047 18.6599 3.00882 18.4712 3.08957C18.2825 3.17031 18.0802 3.21188 17.8759 3.21188C17.6716 3.21202 17.4692 3.17057 17.2803 3.08989C17.0915 3.00921 16.9199 2.89088 16.7754 2.74168C16.6309 2.59247 16.5163 2.41531 16.4381 2.22033C16.36 2.02536 16.3198 1.81639 16.32 1.60538C16.32 1.39446 16.3602 1.18561 16.4384 0.990763C16.5167 0.795916 16.6313 0.61889 16.7758 0.469803C16.9203 0.320715 17.0918 0.202487 17.2806 0.121877C17.4694 0.0412656 17.6717 -0.000148657 17.8759 4.00935e-07C18.2883 4.00935e-07 18.6838 0.169138 18.9754 0.470204C19.267 0.77127 19.4308 1.1796 19.4308 1.60538ZM2.29987 3.753C2.2993 4.06749 2.17798 4.36891 1.96252 4.59119C1.74707 4.81346 1.45505 4.93845 1.15049 4.93875C0.845547 4.93875 0.553081 4.81374 0.337355 4.59119C0.121628 4.36864 0.000288768 4.06676 0 3.75188C0.000288768 3.43699 0.121628 3.13511 0.337355 2.91256C0.553081 2.69001 0.845547 2.565 1.15049 2.565C1.45542 2.5653 1.74777 2.6906 1.96329 2.91336C2.17881 3.13612 2.29987 3.43812 2.29987 3.753ZM10.361 5.45963C14.5025 5.45963 18.1188 7.01213 19.9956 9.31163C19.2995 7.25277 17.9968 5.46557 16.2672 4.19625C14.5443 2.93265 12.4782 2.25287 10.3588 2.25225C8.23973 2.25311 6.17407 2.93287 4.4514 4.19625C2.72138 5.4654 1.41838 7.25262 0.721938 9.31163C2.60425 7.01663 6.22054 5.45963 10.361 5.45963ZM10.3621 20.4165C6.22164 20.4165 2.60425 18.8629 0.727433 16.5634C1.42387 18.6224 2.72688 20.4096 4.4569 21.6788C6.179 22.9427 8.24426 23.6233 10.3632 23.625C12.4827 23.6241 14.5488 22.9439 16.2716 21.6799C18.0012 20.4106 19.3039 18.6234 20 16.5645C18.1188 18.864 14.5025 20.4176 10.361 20.4176L10.3621 20.4165Z" fill="#2e00b0"/>
</svg>
