<svg width="20" height="27" viewBox="0 0 20 27" fill="none" xmlns="http://www.w3.org/2000/svg">
<path d="M7.77778 13.5C8.07246 13.5 8.35508 13.6185 8.56345 13.8295C8.77183 14.0405 8.88889 14.3266 8.88889 14.625V27H1.11111C0.816426 27 0.533811 26.8815 0.325437 26.6705C0.117063 26.4595 0 26.1734 0 25.875V14.625C0 14.3266 0.117063 14.0405 0.325437 13.8295C0.533811 13.6185 0.816426 13.5 1.11111 13.5H7.77778ZM5.55556 12.9375V7.875C5.55556 7.57663 5.67262 7.29048 5.88099 7.07951C6.08937 6.86853 6.37198 6.75 6.66667 6.75H13.3333C13.628 6.75 13.9106 6.86853 14.119 7.07951C14.3274 7.29048 14.4444 7.57663 14.4444 7.875V27H9.44444V14.625C9.44444 14.1774 9.26885 13.7482 8.95629 13.4318C8.64373 13.1153 8.21981 12.9375 7.77778 12.9375H5.55556ZM11.1111 6.1875V1.125C11.1111 0.826631 11.2282 0.540483 11.4365 0.329505C11.6449 0.118526 11.9275 0 12.2222 0L18.8889 0C19.1836 0 19.4662 0.118526 19.6746 0.329505C19.8829 0.540483 20 0.826631 20 1.125V25.875C20 26.1734 19.8829 26.4595 19.6746 26.6705C19.4662 26.8815 19.1836 27 18.8889 27H15V7.875C15 7.42745 14.8244 6.99822 14.5118 6.68176C14.1993 6.36529 13.7754 6.1875 13.3333 6.1875H11.1111Z" fill="#F4CE14"/>
</svg>
