<svg width="25" height="27" viewBox="0 0 25 27" fill="none" xmlns="http://www.w3.org/2000/svg">
<path d="M14.8321 0.2025L15.7649 0.4275L16.5216 0.72L17.1331 1.0575L17.5995 1.4175L17.9519 1.8L18.211 2.1825L18.3769 2.55375L18.4805 2.89125L18.522 3.18375L18.5427 3.40875L18.5323 3.555V9.5625L18.4805 10.2713L18.3458 10.89L18.1281 11.4075L17.8586 11.835L17.5477 12.1837L17.2056 12.465L16.8429 12.6788L16.4801 12.8362L16.1381 12.9488L15.8271 13.0275L15.5576 13.0725L15.34 13.095H9.15216L8.43698 13.1512L7.82546 13.3087L7.30721 13.5563L6.88226 13.86L6.54022 14.22L6.26036 14.6137L6.05307 15.0188L5.8976 15.435L5.79395 15.8287L5.72139 16.1888L5.67993 16.4925L5.6592 16.7287V20.1713H3.34784L3.13018 20.1375L2.83997 20.0587L2.50829 19.9237L2.14552 19.7213L1.77239 19.4288L1.39925 19.0237L1.03648 18.5063L0.704809 17.8425L0.414594 17.0213L0.196932 16.0312L0.0518242 14.85L0 13.4663L0.0621891 12.0938L0.228027 10.9238L0.476783 9.945L0.808458 9.14625L1.18159 8.505L1.59619 8.01L2.03151 7.63875L2.46683 7.36875L2.88143 7.18875L3.25456 7.07625L3.58624 7.02L3.83499 7.00875H4.00083L4.06302 7.02H12.5207V6.08625H6.46766L6.4573 2.9925L6.43657 2.57625L6.48839 2.19375L6.6024 1.845L6.77861 1.53L7.03773 1.2375L7.35904 0.97875L7.7529 0.75375L8.20896 0.55125L8.73756 0.3825L9.33872 0.2475L10.0021 0.135L10.738 0.0675L11.5361 0.0225L12.4067 0L13.7231 0.05625L14.8321 0.2025ZM8.30224 2.43L8.06385 2.80125L7.98093 3.2625L8.06385 3.72375L8.30224 4.10625L8.64428 4.35375L9.06924 4.455L9.4942 4.35375L9.83624 4.10625L10.0746 3.72375L10.1575 3.2625L10.0746 2.80125L9.83624 2.43L9.4942 2.1825L9.06924 2.08125L8.64428 2.1825L8.30224 2.43ZM21.8698 6.87375L22.16 6.94125L22.4917 7.07625L22.8545 7.27875L23.2276 7.5825L23.6007 7.97625L23.9635 8.505L24.2952 9.16875L24.5854 9.99L24.8031 10.98L24.9482 12.15L25 13.5337L24.9378 14.9175L24.772 16.0875L24.5232 17.055L24.1915 17.8537L23.8184 18.495L23.4038 19.0012L22.9685 19.3725L22.5332 19.6425L22.1186 19.8225L21.7454 19.9237L21.4138 19.98L21.165 20.0025L20.9992 19.9913H12.4793V20.9138H18.5323L18.5427 24.0188L18.5634 24.4237L18.5116 24.8062L18.3976 25.155L18.2214 25.4812L17.9623 25.7625L17.641 26.0325L17.2471 26.2575L16.791 26.4488L16.2624 26.6175L15.6613 26.7638L14.9979 26.865L14.262 26.9438L13.4639 26.9887L12.5933 27L11.2769 26.955L10.1679 26.7975L9.23508 26.5725L8.47844 26.2913L7.86692 25.9537L7.4005 25.5825L7.04809 25.2L6.78897 24.8175L6.62313 24.4462L6.51949 24.1088L6.47803 23.8275L6.4573 23.6025L6.46766 23.4563V17.4488L6.51949 16.7287L6.65423 16.1212L6.87189 15.6037L7.14138 15.1762L7.45232 14.8163L7.79436 14.5463L8.15713 14.3212L8.5199 14.1638L8.86194 14.0512L9.17289 13.9838L9.44237 13.9388L9.66003 13.9162L9.79478 13.905H15.8478L16.563 13.8488L17.1745 13.6913L17.6928 13.455L18.1177 13.14L18.4598 12.78L18.7396 12.3863L18.9469 11.9812L19.1024 11.5762L19.2061 11.1825L19.2786 10.8225L19.3201 10.5075L19.3408 10.2713V6.82875H21.507L21.6522 6.84L21.8698 6.87375ZM15.1638 22.905L14.9254 23.2763L14.8425 23.7375L14.9254 24.1988L15.1638 24.57L15.5058 24.8287L15.9308 24.9187L16.3557 24.8287L16.6978 24.57L16.9362 24.1988L17.0191 23.7375L16.9362 23.2763L16.6978 22.905L16.3557 22.6462L15.9308 22.5562L15.5058 22.6462L15.1638 22.905Z" fill="#F4CE14"/>
</svg>
