<svg width="24" height="24" viewBox="0 0 24 24" fill="none" xmlns="http://www.w3.org/2000/svg">
<path d="M0 3.50769C0 1.57045 1.57045 0 3.50769 0H5.76V4.8H0V3.50769Z" fill="#2e00b0"/>
<path d="M13.1872 13.8928H11.9326L12.8274 15.0727C12.7061 15.0975 12.5783 15.1099 12.444 15.1099C12.0872 15.1099 11.7758 15.0224 11.5099 14.8474C11.244 14.6724 11.0372 14.4156 10.8895 14.0769C10.744 13.7383 10.6713 13.3224 10.6713 12.8292C10.6713 12.336 10.744 11.9201 10.8895 11.5815C11.0372 11.2428 11.244 10.986 11.5099 10.811C11.7758 10.636 12.0872 10.5485 12.444 10.5485C12.8008 10.5485 13.1122 10.636 13.3781 10.811C13.644 10.986 13.8497 11.2428 13.9951 11.5815C14.1429 11.9201 14.2167 12.336 14.2167 12.8292C14.2167 13.3224 14.1429 13.7383 13.9951 14.0769C13.9159 14.2614 13.8188 14.4216 13.7038 14.5575L13.1872 13.8928Z" fill="#2e00b0"/>
<path fill-rule="evenodd" clip-rule="evenodd" d="M0 6.72V20.4923C0 22.4296 1.57045 24 3.50769 24H20.4923C22.4296 24 24 22.4296 24 20.4923V3.50769C24 1.57045 22.4296 0 20.4923 0H7.68V5.04C7.68 5.04 7.68 5.76 7.2 6.24C6.72 6.72 5.76 6.72 5.76 6.72H0ZM6.44316 10.7053C6.64998 10.8576 6.76702 11.0713 6.79429 11.3463H8.20907C8.20225 10.9303 8.09089 10.5644 7.87498 10.2485C7.65907 9.93262 7.35679 9.68603 6.96816 9.50876C6.58179 9.33148 6.12952 9.24285 5.61134 9.24285C5.10225 9.24285 4.6477 9.33148 4.2477 9.50876C3.8477 9.68603 3.53293 9.93262 3.30339 10.2485C3.07611 10.5644 2.96361 10.9338 2.96589 11.3565C2.96361 11.8724 3.13293 12.2826 3.47384 12.5872C3.81475 12.8917 4.27952 13.1156 4.86816 13.2588L5.62839 13.4497C5.88293 13.511 6.0977 13.5792 6.2727 13.6542C6.44998 13.7292 6.58407 13.8201 6.67498 13.9269C6.76816 14.0338 6.81475 14.1656 6.81475 14.3224C6.81475 14.4906 6.76361 14.6394 6.66134 14.769C6.55907 14.8985 6.41475 14.9997 6.22839 15.0724C6.04429 15.1451 5.82725 15.1815 5.57725 15.1815C5.3227 15.1815 5.09429 15.1428 4.89202 15.0656C4.69202 14.986 4.53179 14.869 4.41134 14.7144C4.29316 14.5576 4.22611 14.3622 4.2102 14.1281H2.78179C2.79316 14.6304 2.91475 15.0519 3.14657 15.3928C3.38066 15.7315 3.70566 15.9872 4.12157 16.1599C4.53975 16.3326 5.03066 16.419 5.59429 16.419C6.16248 16.419 6.6477 16.3338 7.04998 16.1633C7.45452 15.9906 7.76361 15.7485 7.97725 15.4372C8.19316 15.1235 8.30225 14.7531 8.30452 14.3258C8.30225 14.0349 8.24884 13.7769 8.14429 13.5519C8.04202 13.3269 7.8977 13.1315 7.71134 12.9656C7.52498 12.7997 7.30452 12.6599 7.04998 12.5463C6.79543 12.4326 6.51589 12.3417 6.21134 12.2735L5.58407 12.1235C5.43179 12.0894 5.28861 12.0485 5.15452 12.0008C5.02043 11.9508 4.90225 11.8928 4.79998 11.8269C4.6977 11.7588 4.61702 11.6781 4.55793 11.5849C4.50111 11.4917 4.47498 11.3826 4.47952 11.2576C4.47952 11.1076 4.5227 10.9735 4.60907 10.8553C4.6977 10.7372 4.82498 10.6451 4.99089 10.5792C5.1568 10.511 5.3602 10.4769 5.60111 10.4769C5.95566 10.4769 6.23634 10.5531 6.44316 10.7053ZM14.607 15.6384C14.8738 15.4008 15.0982 15.1121 15.2804 14.7724C15.569 14.2383 15.7133 13.5906 15.7133 12.8292C15.7133 12.0678 15.569 11.4201 15.2804 10.886C14.994 10.3519 14.6031 9.94512 14.1076 9.66558C13.6145 9.38376 13.0599 9.24285 12.444 9.24285C11.8236 9.24285 11.2667 9.38376 10.7736 9.66558C10.2804 9.94512 9.8906 10.3519 9.60424 10.886C9.31787 11.4201 9.17469 12.0678 9.17469 12.8292C9.17469 13.5883 9.31787 14.2349 9.60424 14.769C9.8906 15.3031 10.2804 15.711 10.7736 15.9929C11.2667 16.2747 11.8236 16.4156 12.444 16.4156C12.8833 16.4156 13.2915 16.3445 13.6683 16.2022L14.2304 16.8929H15.6076L14.607 15.6384ZM16.8068 16.3201V9.3383H18.2829V15.1031H21.2761V16.3201H16.8068Z" fill="#2e00b0"/>
</svg>
