<svg width="26" height="27" viewBox="0 0 26 27" fill="none" xmlns="http://www.w3.org/2000/svg">
<path d="M12.6252 0V2.51484H10.4888V3.17694H12.6252V5.69178H13.3792V3.17694H15.5133V2.51484H13.3792V0H13.0022H12.6252ZM19.1577 2.58219L19.1555 4.43493V6.28767H15.9521V7.34589H19.1555V10.9852H20.2854L20.2973 9.17922L20.319 7.38014L21.9061 7.35731L23.4878 7.34589V6.28767H20.2887V2.58219H19.7232H19.1577ZM5.71675 2.65068V6.29224H2.48192V7.34817H5.71675V10.9897H6.78383V7.34703H10.0479V6.2911H6.78383V2.65068H6.25083H5.71675ZM12.3099 8.66667V12.7683H8.73167V14.1244H12.311V18.2295H13.6977V14.1244H17.2824V12.7683H13.6966V8.66667H13.0065H12.3099ZM22.841 10.4361V12.9715H20.6613V13.8973H22.841V16.4783H23.8019V13.8973H26V12.9715H23.8019V10.4372H23.3448L22.841 10.4361ZM2.13742 10.5856V13.0674H0V13.7763H2.13742V16.2808H2.86V13.7763H5.02667V13.0685H2.82642V10.5845H2.48192L2.13742 10.5856ZM19.1555 15.7409V19.4555H15.8882V20.5137H19.1555V24.1861H20.3168V20.5148H23.5517V19.4555H20.3168V15.7409H19.7394H19.1555ZM5.65392 15.75V19.4555H2.4505V20.5148H5.65392V24.1552H6.84667V20.5148H10.0479V19.4555H6.84667V15.7489H6.25083L5.65392 15.75ZM12.4963 20.976L12.4984 22.2352V23.4909H10.3632V24.4178H12.4984V27H13.5038L13.5168 25.7226L13.5352 24.4178H15.6683V23.4909H13.5016V20.976H12.9978H12.4963Z" fill="#F4CE14"/>
</svg>
