<svg width="330" height="559" viewBox="0 0 330 559" fill="none" xmlns="http://www.w3.org/2000/svg">
<path d="M18.5439 71.2H20.5599V88H18.9519V73.744L11.2719 88H9.42391L1.74391 73.744V88H0.159912V71.2H2.17591L10.3599 86.392L18.5439 71.2Z" fill="white"/>
<path d="M30.0465 74.848C33.1665 74.848 35.8065 75.832 35.8065 79.864V88H34.1985V85.984C33.4065 86.944 31.6785 88.336 28.6785 88.336C25.3425 88.336 23.6865 86.776 23.6865 84.592C23.6865 82.504 24.8865 80.584 29.6865 80.584C31.2705 80.584 32.6625 80.656 34.1985 80.728V79.864C34.1985 77.248 33.0705 76.144 30.0465 76.144C27.3105 76.144 26.2785 77.152 25.9665 78.616H24.3585C24.6225 76.192 26.8785 74.848 30.0465 74.848ZM28.9425 87.04C31.6065 87.04 33.4065 85.72 34.1985 84.64V82.048C32.5425 81.952 31.3905 81.904 29.9265 81.904C27.1425 81.904 25.3425 82.528 25.3425 84.52C25.3425 86.32 26.9025 87.04 28.9425 87.04Z" fill="white"/>
<path d="M46.5825 74.848C47.0145 74.848 47.3505 74.896 47.7825 74.944V76.672H47.6625C47.1585 76.552 46.6305 76.432 45.9345 76.432C42.4545 76.432 41.2545 78.808 41.2545 80.752V88H39.6465V75.208H41.2545V77.68C41.7585 76.72 43.2465 74.848 46.5825 74.848Z" fill="white"/>
<path d="M60.7237 88L55.6357 81.448L52.0117 84.808V88H50.4277V71.2H52.0117V82.624L60.0037 75.208H62.3557L56.8117 80.344L62.7157 88H60.7237Z" fill="white"/>
<path d="M70.8407 74.848C74.8727 74.848 77.8727 77.44 77.5847 82.264H65.5607C65.8247 85.12 67.7927 87.04 70.9847 87.04C73.4567 87.04 74.9447 86.008 75.6887 84.304H77.2967C76.3847 86.944 74.0087 88.336 70.9847 88.336C67.2647 88.336 63.9287 86.2 63.9287 81.592C63.9287 77.008 67.0967 74.848 70.8407 74.848ZM65.5607 80.896H76.0247C75.8567 78.184 74.0087 76.144 70.8407 76.144C67.6727 76.144 65.8247 78.04 65.5607 80.896Z" fill="white"/>
<path d="M87.6613 76.552H83.3653V83.68C83.3653 86.488 84.2293 87.016 87.6613 86.68V88.024C87.2053 88.144 86.8213 88.192 86.0533 88.192C83.0053 88.192 81.7573 87.064 81.7573 83.68V76.552H78.8293V75.208H81.7573V71.872H83.3653V75.208H87.6613V76.552Z" fill="white"/>
<path d="M90.7871 88V75.208H92.3951V88H90.7871ZM91.5791 73.12C90.9791 73.12 90.5711 72.784 90.5711 72.184C90.5711 71.584 90.9791 71.248 91.5791 71.248C92.1791 71.248 92.6111 71.584 92.6111 72.184C92.6111 72.784 92.1791 73.12 91.5791 73.12Z" fill="white"/>
<path d="M102.777 74.848C106.017 74.848 107.889 76.96 107.889 79.936V88H106.281V80.608C106.281 77.704 104.937 76.312 102.057 76.312C99.0326 76.312 97.8326 78.472 97.8086 80.608V88H96.2246V75.208H97.8086V77.464C98.4326 76.504 99.9686 74.848 102.777 74.848Z" fill="white"/>
<path d="M122.348 75.208H123.956V86.776C123.956 91.72 120.38 92.464 117.38 92.464C114.14 92.464 111.332 91.264 111.068 88.84H112.676C113.012 90.232 114.62 91.12 117.38 91.12C120.26 91.12 122.348 90.304 122.348 86.776V85.048C121.412 86.416 119.828 87.424 117.284 87.424C113.564 87.424 110.78 85.312 110.78 81.136C110.78 76.984 113.564 74.848 117.284 74.848C119.804 74.848 121.412 75.904 122.348 77.296V75.208ZM117.5 86.128C121.076 86.128 122.588 83.824 122.588 81.136C122.588 78.448 121.052 76.144 117.5 76.144C113.948 76.144 112.388 78.232 112.388 81.136C112.388 84.04 113.924 86.128 117.5 86.128Z" fill="white"/>
<path d="M149.51 88L147.47 83.68H137.15L135.11 88H133.31L141.278 71.2H143.342L151.31 88H149.51ZM137.894 82.096H146.726L142.31 72.736L137.894 82.096Z" fill="white"/>
<path d="M160.011 74.848C163.251 74.848 165.123 76.96 165.123 79.936V88H163.515V80.608C163.515 77.704 162.171 76.312 159.291 76.312C156.267 76.312 155.067 78.472 155.043 80.608V88H153.459V75.208H155.043V77.464C155.667 76.504 157.203 74.848 160.011 74.848Z" fill="white"/>
<path d="M174.14 74.848C177.26 74.848 179.9 75.832 179.9 79.864V88H178.292V85.984C177.5 86.944 175.772 88.336 172.772 88.336C169.436 88.336 167.78 86.776 167.78 84.592C167.78 82.504 168.98 80.584 173.78 80.584C175.364 80.584 176.756 80.656 178.292 80.728V79.864C178.292 77.248 177.164 76.144 174.14 76.144C171.404 76.144 170.372 77.152 170.06 78.616H168.452C168.716 76.192 170.972 74.848 174.14 74.848ZM173.036 87.04C175.7 87.04 177.5 85.72 178.292 84.64V82.048C176.636 81.952 175.484 81.904 174.02 81.904C171.236 81.904 169.436 82.528 169.436 84.52C169.436 86.32 170.996 87.04 173.036 87.04Z" fill="white"/>
<path d="M183.74 70.288H185.324V88H183.74V70.288Z" fill="white"/>
<path d="M200.446 75.208L192.934 92.008H191.182L192.982 88L187.246 75.208H188.998L193.846 86.032L198.718 75.208H200.446Z" fill="white"/>
<path d="M207.695 80.848C211.151 81.4 213.719 81.544 213.719 84.592C213.719 87.064 211.271 88.336 207.935 88.336C204.407 88.336 201.407 87.16 201.407 84.328H203.015C203.015 86.272 205.559 86.992 207.935 86.992C210.119 86.992 212.111 86.32 212.111 84.592C212.111 82.696 209.759 82.792 207.215 82.336C204.431 81.832 201.839 81.52 201.839 78.544C201.839 76.264 204.095 74.848 207.311 74.848C210.935 74.848 213.047 76.264 213.047 78.616H211.463C211.463 77.272 210.143 76.168 207.311 76.168C204.767 76.168 203.447 77.104 203.447 78.544C203.447 80.2 205.223 80.44 207.695 80.848Z" fill="white"/>
<path d="M223.528 76.552H219.232V83.68C219.232 86.488 220.096 87.016 223.528 86.68V88.024C223.072 88.144 222.688 88.192 221.92 88.192C218.872 88.192 217.624 87.064 217.624 83.68V76.552H214.696V75.208H217.624V71.872H219.232V75.208H223.528V76.552Z" fill="white"/>
<path d="M6.30391 263.2C12.3279 263.2 15.8559 265.816 15.8559 271.6C15.8559 277.384 12.3279 280 6.30391 280H0.159912V263.2H6.30391ZM6.30391 278.392C12.1359 278.392 14.2239 275.872 14.2239 271.6C14.2239 267.328 12.1359 264.784 6.30391 264.784H1.74391V278.392H6.30391Z" fill="white"/>
<path d="M24.1402 266.848C27.2602 266.848 29.9002 267.832 29.9002 271.864V280H28.2922V277.984C27.5002 278.944 25.7722 280.336 22.7722 280.336C19.4362 280.336 17.7802 278.776 17.7802 276.592C17.7802 274.504 18.9802 272.584 23.7802 272.584C25.3642 272.584 26.7562 272.656 28.2922 272.728V271.864C28.2922 269.248 27.1642 268.144 24.1402 268.144C21.4042 268.144 20.3722 269.152 20.0602 270.616H18.4522C18.7162 268.192 20.9722 266.848 24.1402 266.848ZM23.0362 279.04C25.7002 279.04 27.5002 277.72 28.2922 276.64V274.048C26.6362 273.952 25.4842 273.904 24.0202 273.904C21.2362 273.904 19.4362 274.528 19.4362 276.52C19.4362 278.32 20.9962 279.04 23.0362 279.04Z" fill="white"/>
<path d="M40.9035 268.552H36.6075V275.68C36.6075 278.488 37.4715 279.016 40.9035 278.68V280.024C40.4475 280.144 40.0635 280.192 39.2955 280.192C36.2475 280.192 34.9995 279.064 34.9995 275.68V268.552H32.0715V267.208H34.9995V263.872H36.6075V267.208H40.9035V268.552Z" fill="white"/>
<path d="M49.4293 266.848C52.5493 266.848 55.1893 267.832 55.1893 271.864V280H53.5813V277.984C52.7893 278.944 51.0613 280.336 48.0613 280.336C44.7253 280.336 43.0693 278.776 43.0693 276.592C43.0693 274.504 44.2693 272.584 49.0693 272.584C50.6533 272.584 52.0453 272.656 53.5813 272.728V271.864C53.5813 269.248 52.4533 268.144 49.4293 268.144C46.6933 268.144 45.6613 269.152 45.3493 270.616H43.7413C44.0053 268.192 46.2613 266.848 49.4293 266.848ZM48.3253 279.04C50.9893 279.04 52.7893 277.72 53.5813 276.64V274.048C51.9253 273.952 50.7733 273.904 49.3093 273.904C46.5253 273.904 44.7253 274.528 44.7253 276.52C44.7253 278.32 46.2853 279.04 48.3253 279.04Z" fill="white"/>
<path d="M80.7686 263.2H82.5686L74.6006 280H72.5126L64.5446 263.2H66.3686L73.5686 278.464L80.7686 263.2Z" fill="white"/>
<path d="M84.7402 280V267.208H86.3482V280H84.7402ZM85.5322 265.12C84.9322 265.12 84.5242 264.784 84.5242 264.184C84.5242 263.584 84.9322 263.248 85.5322 263.248C86.1322 263.248 86.5642 263.584 86.5642 264.184C86.5642 264.784 86.1322 265.12 85.5322 265.12Z" fill="white"/>
<path d="M95.2657 272.848C98.7217 273.4 101.29 273.544 101.29 276.592C101.29 279.064 98.8417 280.336 95.5057 280.336C91.9777 280.336 88.9777 279.16 88.9777 276.328H90.5857C90.5857 278.272 93.1297 278.992 95.5057 278.992C97.6897 278.992 99.6817 278.32 99.6817 276.592C99.6817 274.696 97.3297 274.792 94.7857 274.336C92.0017 273.832 89.4097 273.52 89.4097 270.544C89.4097 268.264 91.6657 266.848 94.8817 266.848C98.5057 266.848 100.618 268.264 100.618 270.616H99.0337C99.0337 269.272 97.7137 268.168 94.8817 268.168C92.3377 268.168 91.0177 269.104 91.0177 270.544C91.0177 272.2 92.7937 272.44 95.2657 272.848Z" fill="white"/>
<path d="M114.016 267.208H115.6V280H114.016V277.72C113.392 278.68 111.856 280.336 109.048 280.336C105.808 280.336 103.936 278.224 103.936 275.272V267.208H105.544V274.576C105.544 277.48 106.888 278.872 109.768 278.872C112.792 278.872 113.992 276.712 114.016 274.6V267.208Z" fill="white"/>
<path d="M124.617 266.848C127.737 266.848 130.377 267.832 130.377 271.864V280H128.769V277.984C127.977 278.944 126.249 280.336 123.249 280.336C119.913 280.336 118.257 278.776 118.257 276.592C118.257 274.504 119.457 272.584 124.257 272.584C125.841 272.584 127.233 272.656 128.769 272.728V271.864C128.769 269.248 127.641 268.144 124.617 268.144C121.881 268.144 120.849 269.152 120.537 270.616H118.929C119.193 268.192 121.449 266.848 124.617 266.848ZM123.513 279.04C126.177 279.04 127.977 277.72 128.769 276.64V274.048C127.113 273.952 125.961 273.904 124.497 273.904C121.713 273.904 119.913 274.528 119.913 276.52C119.913 278.32 121.473 279.04 123.513 279.04Z" fill="white"/>
<path d="M134.217 262.288H135.801V280H134.217V262.288Z" fill="white"/>
<path d="M139.631 280V267.208H141.239V280H139.631ZM140.423 265.12C139.823 265.12 139.415 264.784 139.415 264.184C139.415 263.584 139.823 263.248 140.423 263.248C141.023 263.248 141.455 263.584 141.455 264.184C141.455 264.784 141.023 265.12 140.423 265.12Z" fill="white"/>
<path d="M146.652 278.392H156.252V280H144.348V278.392L153.708 268.792H144.804V267.208H156.012V268.792L146.652 278.392Z" fill="white"/>
<path d="M164.765 266.848C167.885 266.848 170.525 267.832 170.525 271.864V280H168.917V277.984C168.125 278.944 166.397 280.336 163.397 280.336C160.061 280.336 158.405 278.776 158.405 276.592C158.405 274.504 159.605 272.584 164.405 272.584C165.989 272.584 167.381 272.656 168.917 272.728V271.864C168.917 269.248 167.789 268.144 164.765 268.144C162.029 268.144 160.997 269.152 160.685 270.616H159.077C159.341 268.192 161.597 266.848 164.765 266.848ZM163.661 279.04C166.325 279.04 168.125 277.72 168.917 276.64V274.048C167.261 273.952 166.109 273.904 164.645 273.904C161.861 273.904 160.061 274.528 160.061 276.52C160.061 278.32 161.621 279.04 163.661 279.04Z" fill="white"/>
<path d="M181.528 268.552H177.232V275.68C177.232 278.488 178.096 279.016 181.528 278.68V280.024C181.072 280.144 180.688 280.192 179.92 280.192C176.872 280.192 175.624 279.064 175.624 275.68V268.552H172.696V267.208H175.624V263.872H177.232V267.208H181.528V268.552Z" fill="white"/>
<path d="M184.654 280V267.208H186.262V280H184.654ZM185.446 265.12C184.846 265.12 184.438 264.784 184.438 264.184C184.438 263.584 184.846 263.248 185.446 263.248C186.046 263.248 186.478 263.584 186.478 264.184C186.478 264.784 186.046 265.12 185.446 265.12Z" fill="white"/>
<path d="M195.996 266.848C199.74 266.848 202.884 269.008 202.884 273.592C202.884 278.2 199.74 280.336 195.996 280.336C192.276 280.336 189.132 278.2 189.132 273.592C189.132 269.008 192.276 266.848 195.996 266.848ZM195.996 279.04C199.428 279.04 201.276 276.832 201.276 273.592C201.276 270.352 199.428 268.144 195.996 268.144C192.564 268.144 190.716 270.352 190.716 273.592C190.716 276.832 192.564 279.04 195.996 279.04Z" fill="white"/>
<path d="M212.323 266.848C215.563 266.848 217.435 268.96 217.435 271.936V280H215.827V272.608C215.827 269.704 214.483 268.312 211.603 268.312C208.579 268.312 207.379 270.472 207.355 272.608V280H205.771V267.208H207.355V269.464C207.979 268.504 209.515 266.848 212.323 266.848Z" fill="white"/>
<path d="M6.30391 455.2C12.3279 455.2 15.8559 457.816 15.8559 463.6C15.8559 469.384 12.3279 472 6.30391 472H0.159912V455.2H6.30391ZM6.30391 470.392C12.1359 470.392 14.2239 467.872 14.2239 463.6C14.2239 459.328 12.1359 456.784 6.30391 456.784H1.74391V470.392H6.30391Z" fill="white"/>
<path d="M24.8786 458.848C28.6226 458.848 31.7666 461.008 31.7666 465.592C31.7666 470.2 28.6226 472.336 24.8786 472.336C21.1586 472.336 18.0146 470.2 18.0146 465.592C18.0146 461.008 21.1586 458.848 24.8786 458.848ZM24.8786 471.04C28.3106 471.04 30.1586 468.832 30.1586 465.592C30.1586 462.352 28.3106 460.144 24.8786 460.144C21.4466 460.144 19.5986 462.352 19.5986 465.592C19.5986 468.832 21.4466 471.04 24.8786 471.04Z" fill="white"/>
<path d="M40.5583 471.04C43.2943 471.04 45.0463 469.672 45.6223 467.44H47.2543C46.5103 470.776 43.7503 472.336 40.5583 472.336C36.8383 472.336 33.6943 470.2 33.6943 465.592C33.6943 461.008 36.8383 458.848 40.5583 458.848C43.7503 458.848 46.5103 460.432 47.2543 463.744H45.6223C45.0463 461.536 43.2943 460.144 40.5583 460.144C37.1263 460.144 35.2783 462.352 35.2783 465.592C35.2783 468.832 37.1263 471.04 40.5583 471.04Z" fill="white"/>
<path d="M60.203 459.208H61.787V472H60.203V469.72C59.579 470.68 58.043 472.336 55.235 472.336C51.995 472.336 50.123 470.224 50.123 467.272V459.208H51.731V466.576C51.731 469.48 53.075 470.872 55.955 470.872C58.979 470.872 60.179 468.712 60.203 466.6V459.208Z" fill="white"/>
<path d="M80.9027 458.848C84.1187 458.848 85.5347 460.96 85.5347 463.936V472H83.9507V464.608C83.9507 461.704 82.9667 460.312 80.1587 460.312C77.3747 460.312 76.3907 462.472 76.3907 464.608V472H74.8067V464.608C74.8067 461.704 73.7987 460.312 71.0147 460.312C68.2067 460.312 67.2467 462.472 67.2467 464.608V472H65.6387V459.208H67.2467V461.344C67.7507 460.384 69.0467 458.848 71.7347 458.848C74.0387 458.848 75.4307 459.928 76.0307 461.632C76.4627 460.696 77.8787 458.848 80.9027 458.848Z" fill="white"/>
<path d="M95.3328 458.848C99.3648 458.848 102.365 461.44 102.077 466.264H90.0528C90.3168 469.12 92.2849 471.04 95.4769 471.04C97.9489 471.04 99.4368 470.008 100.181 468.304H101.789C100.877 470.944 98.5009 472.336 95.4769 472.336C91.7569 472.336 88.4209 470.2 88.4209 465.592C88.4209 461.008 91.5888 458.848 95.3328 458.848ZM90.0528 464.896H100.517C100.349 462.184 98.5008 460.144 95.3328 460.144C92.1648 460.144 90.3168 462.04 90.0528 464.896Z" fill="white"/>
<path d="M111.542 458.848C114.782 458.848 116.654 460.96 116.654 463.936V472H115.046V464.608C115.046 461.704 113.702 460.312 110.822 460.312C107.798 460.312 106.598 462.472 106.574 464.608V472H104.99V459.208H106.574V461.464C107.198 460.504 108.734 458.848 111.542 458.848Z" fill="white"/>
<path d="M127.669 460.552H123.373V467.68C123.373 470.488 124.237 471.016 127.669 470.68V472.024C127.213 472.144 126.829 472.192 126.061 472.192C123.013 472.192 121.765 471.064 121.765 467.68V460.552H118.837V459.208H121.765V455.872H123.373V459.208H127.669V460.552Z" fill="white"/>
<path d="M136.195 458.848C139.315 458.848 141.955 459.832 141.955 463.864V472H140.347V469.984C139.555 470.944 137.827 472.336 134.827 472.336C131.491 472.336 129.835 470.776 129.835 468.592C129.835 466.504 131.035 464.584 135.835 464.584C137.419 464.584 138.811 464.656 140.347 464.728V463.864C140.347 461.248 139.219 460.144 136.195 460.144C133.459 460.144 132.427 461.152 132.115 462.616H130.507C130.771 460.192 133.027 458.848 136.195 458.848ZM135.091 471.04C137.755 471.04 139.555 469.72 140.347 468.64V466.048C138.691 465.952 137.539 465.904 136.075 465.904C133.291 465.904 131.491 466.528 131.491 468.52C131.491 470.32 133.051 471.04 135.091 471.04Z" fill="white"/>
<path d="M145.795 454.288H147.379V472H145.795V454.288Z" fill="white"/>
<path d="M172.924 472L170.884 467.68H160.564L158.524 472H156.724L164.692 455.2H166.756L174.724 472H172.924ZM161.308 466.096H170.14L165.724 456.736L161.308 466.096Z" fill="white"/>
<path d="M183.425 458.848C186.665 458.848 188.537 460.96 188.537 463.936V472H186.929V464.608C186.929 461.704 185.585 460.312 182.705 460.312C179.681 460.312 178.481 462.472 178.457 464.608V472H176.873V459.208H178.457V461.464C179.081 460.504 180.617 458.848 183.425 458.848Z" fill="white"/>
<path d="M197.554 458.848C200.674 458.848 203.314 459.832 203.314 463.864V472H201.706V469.984C200.914 470.944 199.186 472.336 196.186 472.336C192.85 472.336 191.194 470.776 191.194 468.592C191.194 466.504 192.394 464.584 197.194 464.584C198.778 464.584 200.17 464.656 201.706 464.728V463.864C201.706 461.248 200.578 460.144 197.554 460.144C194.818 460.144 193.786 461.152 193.474 462.616H191.866C192.13 460.192 194.386 458.848 197.554 458.848ZM196.45 471.04C199.114 471.04 200.914 469.72 201.706 468.64V466.048C200.05 465.952 198.898 465.904 197.434 465.904C194.65 465.904 192.85 466.528 192.85 468.52C192.85 470.32 194.41 471.04 196.45 471.04Z" fill="white"/>
<path d="M207.154 454.288H208.738V472H207.154V454.288Z" fill="white"/>
<path d="M223.86 459.208L216.348 476.008H214.596L216.396 472L210.66 459.208H212.412L217.26 470.032L222.132 459.208H223.86Z" fill="white"/>
<path d="M231.109 464.848C234.565 465.4 237.133 465.544 237.133 468.592C237.133 471.064 234.685 472.336 231.349 472.336C227.821 472.336 224.821 471.16 224.821 468.328H226.429C226.429 470.272 228.973 470.992 231.349 470.992C233.533 470.992 235.525 470.32 235.525 468.592C235.525 466.696 233.173 466.792 230.629 466.336C227.845 465.832 225.253 465.52 225.253 462.544C225.253 460.264 227.509 458.848 230.725 458.848C234.349 458.848 236.461 460.264 236.461 462.616H234.877C234.877 461.272 233.557 460.168 230.725 460.168C228.181 460.168 226.861 461.104 226.861 462.544C226.861 464.2 228.637 464.44 231.109 464.848Z" fill="white"/>
<path d="M246.943 460.552H242.647V467.68C242.647 470.488 243.511 471.016 246.943 470.68V472.024C246.487 472.144 246.103 472.192 245.335 472.192C242.287 472.192 241.039 471.064 241.039 467.68V460.552H238.111V459.208H241.039V455.872H242.647V459.208H246.943V460.552Z" fill="white"/>
<path d="M259 355.479C264.523 355.479 269 359.957 269 365.479C269 371.002 264.523 375.479 259 375.479C253.477 375.479 249 371.002 249 365.479C249 359.957 253.477 355.479 259 355.479Z" fill="#DCD225"/>
<path d="M259 178.479C264.523 178.479 269 182.957 269 188.479C269 194.002 264.523 198.479 259 198.479C253.477 198.479 249 194.002 249 188.479C249 182.957 253.477 178.479 259 178.479Z" fill="#DCD225"/>
<path d="M289.696 189.928H297.872V191H288.48C288.48 185.176 296.544 186.968 296.544 182.856C296.544 181.336 295.424 180.456 293.36 180.456C290.976 180.456 290.176 181.704 290.032 182.856H288.928C289.152 180.744 290.944 179.56 293.408 179.56C295.808 179.56 297.6 180.552 297.6 182.952C297.6 187.528 290.256 186.312 289.696 189.928Z" fill="white"/>
<path d="M303.863 179.56C306.663 179.56 308.743 181.528 308.743 185.4C308.743 189.256 306.663 191.224 303.863 191.224C301.063 191.224 298.999 189.256 298.999 185.4C298.999 181.528 301.063 179.56 303.863 179.56ZM303.863 190.312C306.535 190.312 307.671 188.248 307.671 185.4C307.671 182.536 306.535 180.472 303.863 180.472C301.191 180.472 300.055 182.536 300.055 185.4C300.055 188.248 301.191 190.312 303.863 190.312Z" fill="white"/>
<path d="M310.602 189.928H318.778V191H309.386C309.386 185.176 317.45 186.968 317.45 182.856C317.45 181.336 316.33 180.456 314.266 180.456C311.882 180.456 311.082 181.704 310.938 182.856H309.834C310.058 180.744 311.85 179.56 314.314 179.56C316.714 179.56 318.506 180.552 318.506 182.952C318.506 187.528 311.162 186.312 310.602 189.928Z" fill="white"/>
<path d="M323.406 179.816H324.126V191.016H323.07V180.968L319.902 182.936V181.992L323.406 179.816Z" fill="white"/>
<path d="M289.696 368.928H297.872V370H288.48C288.48 364.176 296.544 365.968 296.544 361.856C296.544 360.336 295.424 359.456 293.36 359.456C290.976 359.456 290.176 360.704 290.032 361.856H288.928C289.152 359.744 290.944 358.56 293.408 358.56C295.808 358.56 297.6 359.552 297.6 361.952C297.6 366.528 290.256 365.312 289.696 368.928Z" fill="white"/>
<path d="M303.863 358.56C306.663 358.56 308.743 360.528 308.743 364.4C308.743 368.256 306.663 370.224 303.863 370.224C301.063 370.224 298.999 368.256 298.999 364.4C298.999 360.528 301.063 358.56 303.863 358.56ZM303.863 369.312C306.535 369.312 307.671 367.248 307.671 364.4C307.671 361.536 306.535 359.472 303.863 359.472C301.191 359.472 300.055 361.536 300.055 364.4C300.055 367.248 301.191 369.312 303.863 369.312Z" fill="white"/>
<path d="M310.602 368.928H318.778V370H309.386C309.386 364.176 317.45 365.968 317.45 361.856C317.45 360.336 316.33 359.456 314.266 359.456C311.882 359.456 311.082 360.704 310.938 361.856H309.834C310.058 359.744 311.85 358.56 314.314 358.56C316.714 358.56 318.506 359.552 318.506 361.952C318.506 366.528 311.162 365.312 310.602 368.928Z" fill="white"/>
<path d="M326.814 364.096C328.334 364.336 329.63 365.008 329.63 366.736C329.63 369.024 327.806 370.224 324.91 370.224C321.662 370.224 319.966 368.928 319.902 367.072H321.006C321.166 368.208 322.03 369.312 324.91 369.312C327.102 369.312 328.574 368.496 328.574 366.704C328.574 365.216 327.358 364.656 325.39 364.656H323.198V363.68H325.39C327.182 363.68 328.014 362.96 328.014 361.696C328.014 360.464 327.054 359.472 324.734 359.472C322.43 359.472 321.582 360.48 321.374 361.408H320.286C320.574 359.488 322.59 358.56 324.782 358.56C327.198 358.56 329.07 359.584 329.07 361.664C329.07 363.088 328.062 363.776 326.814 364.096Z" fill="white"/>
<path d="M44.1999 106.8C47.4159 106.8 48.2959 108.512 48.2959 110.352C48.2959 112.064 47.4159 113.904 44.1999 113.904H39.4959V118H38.4399V106.8H44.1999ZM44.1999 112.832C46.4719 112.832 47.1919 111.792 47.1919 110.352C47.1919 108.912 46.4559 107.856 44.1999 107.856H39.4959V112.832H44.1999Z" fill="#5C5B5E"/>
<path d="M54.1854 109.232C56.8734 109.232 58.8734 110.96 58.6814 114.176H50.6654C50.8414 116.08 52.1534 117.36 54.2814 117.36C55.9294 117.36 56.9214 116.672 57.4174 115.536H58.4894C57.8814 117.296 56.2974 118.224 54.2814 118.224C51.8014 118.224 49.5774 116.8 49.5774 113.728C49.5774 110.672 51.6894 109.232 54.1854 109.232ZM50.6654 113.264H57.6414C57.5294 111.456 56.2974 110.096 54.1854 110.096C52.0734 110.096 50.8414 111.36 50.6654 113.264Z" fill="#5C5B5E"/>
<path d="M65.2477 109.232C65.5357 109.232 65.7597 109.264 66.0477 109.296V110.448H65.9677C65.6317 110.368 65.2797 110.288 64.8157 110.288C62.4957 110.288 61.6957 111.872 61.6957 113.168V118H60.6237V109.472H61.6957V111.12C62.0317 110.48 63.0237 109.232 65.2477 109.232Z" fill="#5C5B5E"/>
<path d="M74.5312 109.472H75.5872V118H74.5312V116.48C74.1152 117.12 73.0912 118.224 71.2192 118.224C69.0592 118.224 67.8112 116.816 67.8112 114.848V109.472H68.8832V114.384C68.8832 116.32 69.7792 117.248 71.6992 117.248C73.7152 117.248 74.5152 115.808 74.5312 114.4V109.472Z" fill="#5C5B5E"/>
<path d="M82.9518 113.04H87.7358V113.936H82.9518V113.04Z" fill="#5C5B5E"/>
<path d="M103.988 106.8V107.856H99.7484V118H98.6924V107.856H94.4524V106.8H103.988Z" fill="#5C5B5E"/>
<path d="M108.592 109.232C111.28 109.232 113.28 110.96 113.088 114.176H105.072C105.248 116.08 106.56 117.36 108.688 117.36C110.336 117.36 111.328 116.672 111.824 115.536H112.896C112.288 117.296 110.704 118.224 108.688 118.224C106.208 118.224 103.984 116.8 103.984 113.728C103.984 110.672 106.096 109.232 108.592 109.232ZM105.072 113.264H112.048C111.936 111.456 110.704 110.096 108.592 110.096C106.48 110.096 105.248 111.36 105.072 113.264Z" fill="#5C5B5E"/>
<path d="M122.81 118H121.418L118.362 114.416L115.306 118H113.914L117.658 113.6L114.122 109.472H115.53L118.362 112.784L121.194 109.472H122.586L119.05 113.6L122.81 118Z" fill="#5C5B5E"/>
<path d="M129.337 110.368H126.473V115.12C126.473 116.992 127.049 117.344 129.337 117.12V118.016C129.033 118.096 128.777 118.128 128.265 118.128C126.233 118.128 125.401 117.376 125.401 115.12V110.368H123.449V109.472H125.401V107.248H126.473V109.472H129.337V110.368Z" fill="#5C5B5E"/>
<path d="M131.421 118V109.472H132.493V118H131.421ZM131.949 108.08C131.549 108.08 131.277 107.856 131.277 107.456C131.277 107.056 131.549 106.832 131.949 106.832C132.349 106.832 132.637 107.056 132.637 107.456C132.637 107.856 132.349 108.08 131.949 108.08Z" fill="#5C5B5E"/>
<path d="M135.046 106.192H136.102V118H135.046V106.192Z" fill="#5C5B5E"/>
<path d="M143.612 106.8H144.684V118H143.612V106.8Z" fill="#5C5B5E"/>
<path d="M151.773 109.232C153.933 109.232 155.181 110.64 155.181 112.624V118H154.109V113.072C154.109 111.136 153.213 110.208 151.293 110.208C149.277 110.208 148.477 111.648 148.461 113.072V118H147.405V109.472H148.461V110.976C148.877 110.336 149.901 109.232 151.773 109.232Z" fill="#5C5B5E"/>
<path d="M164.821 106.8H165.893V118H164.821V116.544C164.165 117.504 163.061 118.224 161.397 118.224C158.901 118.224 157.109 116.704 157.109 113.728C157.109 110.752 158.901 109.232 161.397 109.232C163.045 109.232 164.149 109.984 164.821 110.976V106.8ZM161.541 117.36C163.989 117.36 164.981 115.648 164.981 113.728C164.981 111.824 164.005 110.096 161.541 110.096C159.061 110.096 158.181 111.792 158.181 113.728C158.181 115.664 159.077 117.36 161.541 117.36Z" fill="#5C5B5E"/>
<path d="M175.172 109.472H176.228V118H175.172V116.48C174.756 117.12 173.732 118.224 171.86 118.224C169.7 118.224 168.452 116.816 168.452 114.848V109.472H169.524V114.384C169.524 116.32 170.42 117.248 172.34 117.248C174.356 117.248 175.156 115.808 175.172 114.4V109.472Z" fill="#5C5B5E"/>
<path d="M182.188 113.232C184.492 113.6 186.204 113.696 186.204 115.728C186.204 117.376 184.572 118.224 182.348 118.224C179.996 118.224 177.996 117.44 177.996 115.552H179.068C179.068 116.848 180.764 117.328 182.348 117.328C183.804 117.328 185.132 116.88 185.132 115.728C185.132 114.464 183.564 114.528 181.868 114.224C180.012 113.888 178.284 113.68 178.284 111.696C178.284 110.176 179.788 109.232 181.932 109.232C184.348 109.232 185.756 110.176 185.756 111.744H184.7C184.7 110.848 183.82 110.112 181.932 110.112C180.236 110.112 179.356 110.736 179.356 111.696C179.356 112.8 180.54 112.96 182.188 113.232Z" fill="#5C5B5E"/>
<path d="M192.743 110.368H189.879V115.12C189.879 116.992 190.455 117.344 192.743 117.12V118.016C192.439 118.096 192.183 118.128 191.671 118.128C189.639 118.128 188.807 117.376 188.807 115.12V110.368H186.855V109.472H188.807V107.248H189.879V109.472H192.743V110.368Z" fill="#5C5B5E"/>
<path d="M199.451 109.232C199.739 109.232 199.963 109.264 200.251 109.296V110.448H200.171C199.835 110.368 199.483 110.288 199.019 110.288C196.699 110.288 195.899 111.872 195.899 113.168V118H194.827V109.472H195.899V111.12C196.235 110.48 197.227 109.232 199.451 109.232Z" fill="#5C5B5E"/>
<path d="M210.011 109.472L205.003 120.672H203.835L205.035 118L201.211 109.472H202.379L205.611 116.688L208.859 109.472H210.011Z" fill="#5C5B5E"/>
<path d="M51.6999 298.8C54.9159 298.8 55.7959 300.512 55.7959 302.352C55.7959 304.064 54.9159 305.904 51.6999 305.904H46.9959V310H45.9399V298.8H51.6999ZM51.6999 304.832C53.9719 304.832 54.6919 303.792 54.6919 302.352C54.6919 300.912 53.9559 299.856 51.6999 299.856H46.9959V304.832H51.6999Z" fill="#5C5B5E"/>
<path d="M61.6854 301.232C64.3734 301.232 66.3734 302.96 66.1814 306.176H58.1654C58.3414 308.08 59.6534 309.36 61.7814 309.36C63.4294 309.36 64.4214 308.672 64.9174 307.536H65.9894C65.3814 309.296 63.7974 310.224 61.7814 310.224C59.3014 310.224 57.0774 308.8 57.0774 305.728C57.0774 302.672 59.1894 301.232 61.6854 301.232ZM58.1654 305.264H65.1414C65.0294 303.456 63.7974 302.096 61.6854 302.096C59.5734 302.096 58.3414 303.36 58.1654 305.264Z" fill="#5C5B5E"/>
<path d="M72.7477 301.232C73.0357 301.232 73.2597 301.264 73.5477 301.296V302.448H73.4677C73.1317 302.368 72.7797 302.288 72.3157 302.288C69.9957 302.288 69.1957 303.872 69.1957 305.168V310H68.1237V301.472H69.1957V303.12C69.5317 302.48 70.5237 301.232 72.7477 301.232Z" fill="#5C5B5E"/>
<path d="M82.0312 301.472H83.0872V310H82.0312V308.48C81.6152 309.12 80.5912 310.224 78.7192 310.224C76.5592 310.224 75.3112 308.816 75.3112 306.848V301.472H76.3832V306.384C76.3832 308.32 77.2792 309.248 79.1992 309.248C81.2152 309.248 82.0152 307.808 82.0312 306.4V301.472Z" fill="#5C5B5E"/>
<path d="M90.4518 305.04H95.2358V305.936H90.4518V305.04Z" fill="#5C5B5E"/>
<path d="M111.232 308.928V310H102.752V298.8H111.072V299.856H103.824V303.712H110.624V304.784H103.824V308.928H111.232Z" fill="#5C5B5E"/>
<path d="M117.247 309.36C119.071 309.36 120.239 308.448 120.623 306.96H121.711C121.215 309.184 119.375 310.224 117.247 310.224C114.767 310.224 112.671 308.8 112.671 305.728C112.671 302.672 114.767 301.232 117.247 301.232C119.375 301.232 121.215 302.288 121.711 304.496H120.623C120.239 303.024 119.071 302.096 117.247 302.096C114.959 302.096 113.727 303.568 113.727 305.728C113.727 307.888 114.959 309.36 117.247 309.36Z" fill="#5C5B5E"/>
<path d="M127.56 301.232C130.056 301.232 132.152 302.672 132.152 305.728C132.152 308.8 130.056 310.224 127.56 310.224C125.08 310.224 122.984 308.8 122.984 305.728C122.984 302.672 125.08 301.232 127.56 301.232ZM127.56 309.36C129.848 309.36 131.08 307.888 131.08 305.728C131.08 303.568 129.848 302.096 127.56 302.096C125.272 302.096 124.04 303.568 124.04 305.728C124.04 307.888 125.272 309.36 127.56 309.36Z" fill="#5C5B5E"/>
<path d="M144.253 301.232C146.397 301.232 147.341 302.64 147.341 304.624V310H146.285V305.072C146.285 303.136 145.629 302.208 143.757 302.208C141.901 302.208 141.245 303.648 141.245 305.072V310H140.189V305.072C140.189 303.136 139.517 302.208 137.661 302.208C135.789 302.208 135.149 303.648 135.149 305.072V310H134.077V301.472H135.149V302.896C135.485 302.256 136.349 301.232 138.141 301.232C139.677 301.232 140.605 301.952 141.005 303.088C141.293 302.464 142.237 301.232 144.253 301.232Z" fill="#5C5B5E"/>
<path d="M160.081 301.232C162.225 301.232 163.169 302.64 163.169 304.624V310H162.113V305.072C162.113 303.136 161.457 302.208 159.585 302.208C157.729 302.208 157.073 303.648 157.073 305.072V310H156.017V305.072C156.017 303.136 155.345 302.208 153.489 302.208C151.617 302.208 150.977 303.648 150.977 305.072V310H149.905V301.472H150.977V302.896C151.313 302.256 152.177 301.232 153.969 301.232C155.505 301.232 156.433 301.952 156.833 303.088C157.121 302.464 158.065 301.232 160.081 301.232Z" fill="#5C5B5E"/>
<path d="M169.701 301.232C172.389 301.232 174.389 302.96 174.197 306.176H166.181C166.357 308.08 167.669 309.36 169.797 309.36C171.445 309.36 172.437 308.672 172.933 307.536H174.005C173.397 309.296 171.813 310.224 169.797 310.224C167.317 310.224 165.093 308.8 165.093 305.728C165.093 302.672 167.205 301.232 169.701 301.232ZM166.181 305.264H173.157C173.045 303.456 171.813 302.096 169.701 302.096C167.589 302.096 166.357 303.36 166.181 305.264Z" fill="#5C5B5E"/>
<path d="M180.763 301.232C181.051 301.232 181.275 301.264 181.563 301.296V302.448H181.483C181.147 302.368 180.795 302.288 180.331 302.288C178.011 302.288 177.211 303.872 177.211 305.168V310H176.139V301.472H177.211V303.12C177.547 302.48 178.539 301.232 180.763 301.232Z" fill="#5C5B5E"/>
<path d="M187.107 309.36C188.931 309.36 190.099 308.448 190.483 306.96H191.571C191.075 309.184 189.235 310.224 187.107 310.224C184.627 310.224 182.531 308.8 182.531 305.728C182.531 302.672 184.627 301.232 187.107 301.232C189.235 301.232 191.075 302.288 191.571 304.496H190.483C190.099 303.024 188.931 302.096 187.107 302.096C184.819 302.096 183.587 303.568 183.587 305.728C183.587 307.888 184.819 309.36 187.107 309.36Z" fill="#5C5B5E"/>
<path d="M197.451 301.232C200.139 301.232 202.139 302.96 201.947 306.176H193.931C194.107 308.08 195.419 309.36 197.547 309.36C199.195 309.36 200.187 308.672 200.683 307.536H201.755C201.147 309.296 199.563 310.224 197.547 310.224C195.067 310.224 192.843 308.8 192.843 305.728C192.843 302.672 194.955 301.232 197.451 301.232ZM193.931 305.264H200.907C200.795 303.456 199.563 302.096 197.451 302.096C195.339 302.096 194.107 303.36 193.931 305.264Z" fill="#5C5B5E"/>
<path d="M72.8839 495.936C75.9239 496.32 77.4919 496.656 77.4919 498.896C77.4919 500.88 75.8119 502.224 72.4519 502.224C69.0759 502.224 67.0759 501.056 66.9799 498.896H68.0519C68.1799 500.832 70.5479 501.2 72.4519 501.2C74.5639 501.2 76.3879 500.608 76.3879 498.976C76.3879 497.44 75.1079 497.28 72.7079 496.976C69.1079 496.528 67.3639 496.176 67.3639 493.824C67.3639 491.632 69.4279 490.56 72.0519 490.56C74.7399 490.56 76.7079 491.424 76.8519 493.68H75.7799C75.6039 492.112 74.1319 491.6 72.0519 491.6C70.0359 491.6 68.4519 492.176 68.4519 493.824C68.4519 495.44 70.0199 495.568 72.8839 495.936Z" fill="#5C5B5E"/>
<path d="M83.7447 493.232C86.2407 493.232 88.0327 494.752 88.0327 497.728C88.0327 500.704 86.2407 502.224 83.7447 502.224C82.0967 502.224 80.9927 501.488 80.3207 500.496V504.672H79.2487V493.472H80.3207V494.928C80.9767 493.952 82.0807 493.232 83.7447 493.232ZM83.6167 501.36C86.0807 501.36 86.9607 499.664 86.9607 497.728C86.9607 495.792 86.0647 494.096 83.6167 494.096C81.1527 494.096 80.1607 495.824 80.1607 497.728C80.1607 499.648 81.1367 501.36 83.6167 501.36Z" fill="#5C5B5E"/>
<path d="M93.5518 493.232C95.6318 493.232 97.3918 493.888 97.3918 496.576V502H96.3198V500.656C95.7918 501.296 94.6398 502.224 92.6398 502.224C90.4158 502.224 89.3118 501.184 89.3118 499.728C89.3118 498.336 90.1118 497.056 93.3118 497.056C94.3678 497.056 95.2958 497.104 96.3198 497.152V496.576C96.3198 494.832 95.5678 494.096 93.5518 494.096C91.7278 494.096 91.0398 494.768 90.8318 495.744H89.7598C89.9358 494.128 91.4398 493.232 93.5518 493.232ZM92.8158 501.36C94.5918 501.36 95.7918 500.48 96.3198 499.76V498.032C95.2158 497.968 94.4478 497.936 93.4718 497.936C91.6158 497.936 90.4158 498.352 90.4158 499.68C90.4158 500.88 91.4558 501.36 92.8158 501.36Z" fill="#5C5B5E"/>
<path d="M99.9518 502V493.472H101.024V502H99.9518ZM100.48 492.08C100.08 492.08 99.8078 491.856 99.8078 491.456C99.8078 491.056 100.08 490.832 100.48 490.832C100.88 490.832 101.168 491.056 101.168 491.456C101.168 491.856 100.88 492.08 100.48 492.08Z" fill="#5C5B5E"/>
<path d="M107.945 493.232C110.105 493.232 111.353 494.64 111.353 496.624V502H110.281V497.072C110.281 495.136 109.385 494.208 107.465 494.208C105.449 494.208 104.649 495.648 104.633 497.072V502H103.577V493.472H104.633V494.976C105.049 494.336 106.073 493.232 107.945 493.232Z" fill="#5C5B5E"/>
<path d="M118.717 497.04H123.501V497.936H118.717V497.04Z" fill="#5C5B5E"/>
<path d="M140.538 502L139.178 499.12H132.298L130.938 502H129.738L135.05 490.8H136.426L141.738 502H140.538ZM132.794 498.064H138.682L135.738 491.824L132.794 498.064Z" fill="#5C5B5E"/>
<path d="M143.171 502V493.472H144.243V502H143.171ZM143.699 492.08C143.299 492.08 143.027 491.856 143.027 491.456C143.027 491.056 143.299 490.832 143.699 490.832C144.099 490.832 144.387 491.056 144.387 491.456C144.387 491.856 144.099 492.08 143.699 492.08Z" fill="#5C5B5E"/>
<path d="M151.42 493.232C151.708 493.232 151.932 493.264 152.22 493.296V494.448H152.14C151.804 494.368 151.452 494.288 150.988 494.288C148.668 494.288 147.868 495.872 147.868 497.168V502H146.796V493.472H147.868V495.12C148.204 494.48 149.196 493.232 151.42 493.232Z" fill="#5C5B5E"/>
<path d="M153.983 490.192H155.039V502H153.983V490.192Z" fill="#5C5B5E"/>
<path d="M157.592 502V493.472H158.664V502H157.592ZM158.12 492.08C157.72 492.08 157.448 491.856 157.448 491.456C157.448 491.056 157.72 490.832 158.12 490.832C158.52 490.832 158.808 491.056 158.808 491.456C158.808 491.856 158.52 492.08 158.12 492.08Z" fill="#5C5B5E"/>
<path d="M165.585 493.232C167.745 493.232 168.993 494.64 168.993 496.624V502H167.921V497.072C167.921 495.136 167.025 494.208 165.105 494.208C163.089 494.208 162.289 495.648 162.273 497.072V502H161.217V493.472H162.273V494.976C162.689 494.336 163.713 493.232 165.585 493.232Z" fill="#5C5B5E"/>
<path d="M175.529 493.232C178.217 493.232 180.217 494.96 180.025 498.176H172.009C172.185 500.08 173.497 501.36 175.625 501.36C177.273 501.36 178.265 500.672 178.761 499.536H179.833C179.225 501.296 177.641 502.224 175.625 502.224C173.145 502.224 170.921 500.8 170.921 497.728C170.921 494.672 173.033 493.232 175.529 493.232ZM172.009 497.264H178.985C178.873 495.456 177.641 494.096 175.529 494.096C173.417 494.096 172.185 495.36 172.009 497.264Z" fill="#5C5B5E"/>
</svg>
