<svg width="856" height="100" viewBox="0 0 856 100" fill="none" xmlns="http://www.w3.org/2000/svg">
<circle cx="261.5" cy="53" r="7" fill="#F4CE14"/>
<circle cx="591.5" cy="53" r="7" fill="#F4CE14"/>
<path d="M244.196 94.928H252.372V96H242.98C242.98 90.176 251.044 91.968 251.044 87.856C251.044 86.336 249.924 85.456 247.86 85.456C245.476 85.456 244.676 86.704 244.532 87.856H243.428C243.652 85.744 245.444 84.56 247.908 84.56C250.308 84.56 252.1 85.552 252.1 87.952C252.1 92.528 244.756 91.312 244.196 94.928ZM258.363 84.56C261.163 84.56 263.243 86.528 263.243 90.4C263.243 94.256 261.163 96.224 258.363 96.224C255.563 96.224 253.499 94.256 253.499 90.4C253.499 86.528 255.563 84.56 258.363 84.56ZM258.363 95.312C261.035 95.312 262.171 93.248 262.171 90.4C262.171 87.536 261.035 85.472 258.363 85.472C255.691 85.472 254.555 87.536 254.555 90.4C254.555 93.248 255.691 95.312 258.363 95.312ZM265.102 94.928H273.278V96H263.886C263.886 90.176 271.95 91.968 271.95 87.856C271.95 86.336 270.83 85.456 268.766 85.456C266.382 85.456 265.582 86.704 265.438 87.856H264.334C264.558 85.744 266.35 84.56 268.814 84.56C271.214 84.56 273.006 85.552 273.006 87.952C273.006 92.528 265.662 91.312 265.102 94.928ZM277.906 84.816H278.626V96.016H277.57V85.968L274.402 87.936V86.992L277.906 84.816Z" fill="#E2E2E2"/>
<path d="M572.196 94.928H580.372V96H570.98C570.98 90.176 579.044 91.968 579.044 87.856C579.044 86.336 577.924 85.456 575.86 85.456C573.476 85.456 572.676 86.704 572.532 87.856H571.428C571.652 85.744 573.444 84.56 575.908 84.56C578.308 84.56 580.1 85.552 580.1 87.952C580.1 92.528 572.756 91.312 572.196 94.928ZM586.363 84.56C589.163 84.56 591.243 86.528 591.243 90.4C591.243 94.256 589.163 96.224 586.363 96.224C583.563 96.224 581.499 94.256 581.499 90.4C581.499 86.528 583.563 84.56 586.363 84.56ZM586.363 95.312C589.035 95.312 590.171 93.248 590.171 90.4C590.171 87.536 589.035 85.472 586.363 85.472C583.691 85.472 582.555 87.536 582.555 90.4C582.555 93.248 583.691 95.312 586.363 95.312ZM593.102 94.928H601.278V96H591.886C591.886 90.176 599.95 91.968 599.95 87.856C599.95 86.336 598.83 85.456 596.766 85.456C594.382 85.456 593.582 86.704 593.438 87.856H592.334C592.558 85.744 594.35 84.56 596.814 84.56C599.214 84.56 601.006 85.552 601.006 87.952C601.006 92.528 593.662 91.312 593.102 94.928ZM609.314 90.096C610.834 90.336 612.13 91.008 612.13 92.736C612.13 95.024 610.306 96.224 607.41 96.224C604.162 96.224 602.466 94.928 602.402 93.072H603.506C603.666 94.208 604.53 95.312 607.41 95.312C609.602 95.312 611.074 94.496 611.074 92.704C611.074 91.216 609.858 90.656 607.89 90.656H605.698V89.68H607.89C609.682 89.68 610.514 88.96 610.514 87.696C610.514 86.464 609.554 85.472 607.234 85.472C604.93 85.472 604.082 86.48 603.874 87.408H602.786C603.074 85.488 605.09 84.56 607.282 84.56C609.698 84.56 611.57 85.584 611.57 87.664C611.57 89.088 610.562 89.776 609.314 90.096Z" fill="#E2E2E2"/>
<path d="M53.196 4.8H54.54V16H53.468V6.496L48.348 16H47.116L41.996 6.496V16H40.94V4.8H42.284L47.74 14.928L53.196 4.8ZM60.8644 7.232C62.9444 7.232 64.7044 7.888 64.7044 10.576V16H63.6324V14.656C63.1044 15.296 61.9524 16.224 59.9524 16.224C57.7284 16.224 56.6244 15.184 56.6244 13.728C56.6244 12.336 57.4244 11.056 60.6244 11.056C61.6804 11.056 62.6084 11.104 63.6324 11.152V10.576C63.6324 8.832 62.8804 8.096 60.8644 8.096C59.0404 8.096 58.3524 8.768 58.1444 9.744H57.0724C57.2484 8.128 58.7524 7.232 60.8644 7.232ZM60.1284 15.36C61.9044 15.36 63.1044 14.48 63.6324 13.76V12.032C62.5284 11.968 61.7604 11.936 60.7844 11.936C58.9284 11.936 57.7284 12.352 57.7284 13.68C57.7284 14.88 58.7684 15.36 60.1284 15.36ZM71.8884 7.232C72.1764 7.232 72.4004 7.264 72.6884 7.296V8.448H72.6084C72.2724 8.368 71.9204 8.288 71.4564 8.288C69.1364 8.288 68.3364 9.872 68.3364 11.168V16H67.2644V7.472H68.3364V9.12C68.6724 8.48 69.6644 7.232 71.8884 7.232ZM81.3159 16L77.9239 11.632L75.5079 13.872V16H74.4519V4.8H75.5079V12.416L80.8359 7.472H82.4039L78.7079 10.896L82.6439 16H81.3159ZM88.0605 7.232C90.7485 7.232 92.7485 8.96 92.5565 12.176H84.5405C84.7165 14.08 86.0285 15.36 88.1565 15.36C89.8045 15.36 90.7965 14.672 91.2925 13.536H92.3645C91.7565 15.296 90.1725 16.224 88.1565 16.224C85.6765 16.224 83.4525 14.8 83.4525 11.728C83.4525 8.672 85.5645 7.232 88.0605 7.232ZM84.5405 11.264H91.5165C91.4045 9.456 90.1725 8.096 88.0605 8.096C85.9485 8.096 84.7165 9.36 84.5405 11.264ZM99.2743 8.368H96.4103V13.12C96.4103 14.992 96.9863 15.344 99.2743 15.12V16.016C98.9703 16.096 98.7143 16.128 98.2023 16.128C96.1703 16.128 95.3383 15.376 95.3383 13.12V8.368H93.3863V7.472H95.3383V5.248H96.4103V7.472H99.2743V8.368ZM101.358 16V7.472H102.43V16H101.358ZM101.886 6.08C101.486 6.08 101.214 5.856 101.214 5.456C101.214 5.056 101.486 4.832 101.886 4.832C102.286 4.832 102.574 5.056 102.574 5.456C102.574 5.856 102.286 6.08 101.886 6.08ZM109.351 7.232C111.511 7.232 112.759 8.64 112.759 10.624V16H111.687V11.072C111.687 9.136 110.791 8.208 108.871 8.208C106.855 8.208 106.055 9.648 106.039 11.072V16H104.983V7.472H106.039V8.976C106.455 8.336 107.479 7.232 109.351 7.232ZM122.399 7.472H123.471V15.184C123.471 18.48 121.087 18.976 119.087 18.976C116.927 18.976 115.055 18.176 114.879 16.56H115.951C116.175 17.488 117.247 18.08 119.087 18.08C121.007 18.08 122.399 17.536 122.399 15.184V14.032C121.775 14.944 120.719 15.616 119.023 15.616C116.543 15.616 114.687 14.208 114.687 11.424C114.687 8.656 116.543 7.232 119.023 7.232C120.703 7.232 121.775 7.936 122.399 8.864V7.472ZM119.167 14.752C121.551 14.752 122.559 13.216 122.559 11.424C122.559 9.632 121.535 8.096 119.167 8.096C116.799 8.096 115.759 9.488 115.759 11.424C115.759 13.36 116.783 14.752 119.167 14.752ZM140.507 16L139.147 13.12H132.267L130.907 16H129.707L135.019 4.8H136.395L141.707 16H140.507ZM132.763 12.064H138.651L135.707 5.824L132.763 12.064ZM147.507 7.232C149.667 7.232 150.915 8.64 150.915 10.624V16H149.843V11.072C149.843 9.136 148.947 8.208 147.027 8.208C145.011 8.208 144.211 9.648 144.195 11.072V16H143.139V7.472H144.195V8.976C144.611 8.336 145.635 7.232 147.507 7.232ZM156.927 7.232C159.007 7.232 160.767 7.888 160.767 10.576V16H159.695V14.656C159.167 15.296 158.015 16.224 156.015 16.224C153.791 16.224 152.687 15.184 152.687 13.728C152.687 12.336 153.487 11.056 156.687 11.056C157.743 11.056 158.671 11.104 159.695 11.152V10.576C159.695 8.832 158.943 8.096 156.927 8.096C155.103 8.096 154.415 8.768 154.207 9.744H153.135C153.311 8.128 154.815 7.232 156.927 7.232ZM156.191 15.36C157.967 15.36 159.167 14.48 159.695 13.76V12.032C158.591 11.968 157.823 11.936 156.847 11.936C154.991 11.936 153.791 12.352 153.791 13.68C153.791 14.88 154.831 15.36 156.191 15.36ZM163.327 4.192H164.383V16H163.327V4.192ZM174.464 7.472L169.456 18.672H168.288L169.488 16L165.664 7.472H166.832L170.064 14.688L173.312 7.472H174.464ZM179.297 11.232C181.601 11.6 183.313 11.696 183.313 13.728C183.313 15.376 181.681 16.224 179.457 16.224C177.105 16.224 175.105 15.44 175.105 13.552H176.177C176.177 14.848 177.873 15.328 179.457 15.328C180.913 15.328 182.241 14.88 182.241 13.728C182.241 12.464 180.673 12.528 178.977 12.224C177.121 11.888 175.393 11.68 175.393 9.696C175.393 8.176 176.897 7.232 179.041 7.232C181.457 7.232 182.865 8.176 182.865 9.744H181.809C181.809 8.848 180.929 8.112 179.041 8.112C177.345 8.112 176.465 8.736 176.465 9.696C176.465 10.8 177.649 10.96 179.297 11.232ZM189.852 8.368H186.988V13.12C186.988 14.992 187.564 15.344 189.852 15.12V16.016C189.548 16.096 189.292 16.128 188.78 16.128C186.748 16.128 185.916 15.376 185.916 13.12V8.368H183.964V7.472H185.916V5.248H186.988V7.472H189.852V8.368Z" fill="#E2E2E2"/>
<path d="M352.036 4.8C356.052 4.8 358.404 6.544 358.404 10.4C358.404 14.256 356.052 16 352.036 16H347.94V4.8H352.036ZM352.036 14.928C355.924 14.928 357.316 13.248 357.316 10.4C357.316 7.552 355.924 5.856 352.036 5.856H348.996V14.928H352.036ZM363.927 7.232C366.007 7.232 367.767 7.888 367.767 10.576V16H366.695V14.656C366.167 15.296 365.015 16.224 363.015 16.224C360.791 16.224 359.687 15.184 359.687 13.728C359.687 12.336 360.487 11.056 363.687 11.056C364.743 11.056 365.671 11.104 366.695 11.152V10.576C366.695 8.832 365.943 8.096 363.927 8.096C362.103 8.096 361.415 8.768 361.207 9.744H360.135C360.311 8.128 361.815 7.232 363.927 7.232ZM363.191 15.36C364.967 15.36 366.167 14.48 366.695 13.76V12.032C365.591 11.968 364.823 11.936 363.847 11.936C361.991 11.936 360.791 12.352 360.791 13.68C360.791 14.88 361.831 15.36 363.191 15.36ZM375.102 8.368H372.238V13.12C372.238 14.992 372.814 15.344 375.102 15.12V16.016C374.798 16.096 374.542 16.128 374.03 16.128C371.998 16.128 371.166 15.376 371.166 13.12V8.368H369.214V7.472H371.166V5.248H372.238V7.472H375.102V8.368ZM380.786 7.232C382.866 7.232 384.626 7.888 384.626 10.576V16H383.554V14.656C383.026 15.296 381.874 16.224 379.874 16.224C377.65 16.224 376.546 15.184 376.546 13.728C376.546 12.336 377.346 11.056 380.546 11.056C381.602 11.056 382.53 11.104 383.554 11.152V10.576C383.554 8.832 382.802 8.096 380.786 8.096C378.962 8.096 378.274 8.768 378.066 9.744H376.994C377.17 8.128 378.674 7.232 380.786 7.232ZM380.05 15.36C381.826 15.36 383.026 14.48 383.554 13.76V12.032C382.45 11.968 381.682 11.936 380.706 11.936C378.85 11.936 377.65 12.352 377.65 13.68C377.65 14.88 378.69 15.36 380.05 15.36ZM401.679 4.8H402.879L397.567 16H396.175L390.863 4.8H392.079L396.879 14.976L401.679 4.8ZM404.327 16V7.472H405.399V16H404.327ZM404.855 6.08C404.455 6.08 404.183 5.856 404.183 5.456C404.183 5.056 404.455 4.832 404.855 4.832C405.255 4.832 405.543 5.056 405.543 5.456C405.543 5.856 405.255 6.08 404.855 6.08ZM411.344 11.232C413.648 11.6 415.36 11.696 415.36 13.728C415.36 15.376 413.728 16.224 411.504 16.224C409.152 16.224 407.152 15.44 407.152 13.552H408.224C408.224 14.848 409.92 15.328 411.504 15.328C412.96 15.328 414.288 14.88 414.288 13.728C414.288 12.464 412.72 12.528 411.024 12.224C409.168 11.888 407.44 11.68 407.44 9.696C407.44 8.176 408.944 7.232 411.088 7.232C413.504 7.232 414.912 8.176 414.912 9.744H413.856C413.856 8.848 412.976 8.112 411.088 8.112C409.392 8.112 408.512 8.736 408.512 9.696C408.512 10.8 409.696 10.96 411.344 11.232ZM423.844 7.472H424.9V16H423.844V14.48C423.428 15.12 422.404 16.224 420.532 16.224C418.372 16.224 417.124 14.816 417.124 12.848V7.472H418.196V12.384C418.196 14.32 419.092 15.248 421.012 15.248C423.028 15.248 423.828 13.808 423.844 12.4V7.472ZM430.911 7.232C432.991 7.232 434.751 7.888 434.751 10.576V16H433.679V14.656C433.151 15.296 431.999 16.224 429.999 16.224C427.775 16.224 426.671 15.184 426.671 13.728C426.671 12.336 427.471 11.056 430.671 11.056C431.727 11.056 432.655 11.104 433.679 11.152V10.576C433.679 8.832 432.927 8.096 430.911 8.096C429.087 8.096 428.399 8.768 428.191 9.744H427.119C427.295 8.128 428.799 7.232 430.911 7.232ZM430.175 15.36C431.951 15.36 433.151 14.48 433.679 13.76V12.032C432.575 11.968 431.807 11.936 430.831 11.936C428.975 11.936 427.775 12.352 427.775 13.68C427.775 14.88 428.815 15.36 430.175 15.36ZM437.311 4.192H438.367V16H437.311V4.192ZM440.921 16V7.472H441.993V16H440.921ZM441.449 6.08C441.049 6.08 440.777 5.856 440.777 5.456C440.777 5.056 441.049 4.832 441.449 4.832C441.849 4.832 442.137 5.056 442.137 5.456C442.137 5.856 441.849 6.08 441.449 6.08ZM445.602 14.928H452.002V16H444.066V14.928L450.306 8.528H444.37V7.472H451.842V8.528L445.602 14.928ZM457.677 7.232C459.757 7.232 461.517 7.888 461.517 10.576V16H460.445V14.656C459.917 15.296 458.765 16.224 456.765 16.224C454.541 16.224 453.437 15.184 453.437 13.728C453.437 12.336 454.237 11.056 457.437 11.056C458.493 11.056 459.421 11.104 460.445 11.152V10.576C460.445 8.832 459.693 8.096 457.677 8.096C455.853 8.096 455.165 8.768 454.957 9.744H453.885C454.061 8.128 455.565 7.232 457.677 7.232ZM456.941 15.36C458.717 15.36 459.917 14.48 460.445 13.76V12.032C459.341 11.968 458.573 11.936 457.597 11.936C455.741 11.936 454.541 12.352 454.541 13.68C454.541 14.88 455.581 15.36 456.941 15.36ZM468.852 8.368H465.988V13.12C465.988 14.992 466.564 15.344 468.852 15.12V16.016C468.548 16.096 468.292 16.128 467.78 16.128C465.748 16.128 464.916 15.376 464.916 13.12V8.368H462.964V7.472H464.916V5.248H465.988V7.472H468.852V8.368ZM470.936 16V7.472H472.008V16H470.936ZM471.464 6.08C471.064 6.08 470.792 5.856 470.792 5.456C470.792 5.056 471.064 4.832 471.464 4.832C471.864 4.832 472.152 5.056 472.152 5.456C472.152 5.856 471.864 6.08 471.464 6.08ZM478.497 7.232C480.993 7.232 483.089 8.672 483.089 11.728C483.089 14.8 480.993 16.224 478.497 16.224C476.017 16.224 473.921 14.8 473.921 11.728C473.921 8.672 476.017 7.232 478.497 7.232ZM478.497 15.36C480.785 15.36 482.017 13.888 482.017 11.728C482.017 9.568 480.785 8.096 478.497 8.096C476.209 8.096 474.977 9.568 474.977 11.728C474.977 13.888 476.209 15.36 478.497 15.36ZM489.382 7.232C491.542 7.232 492.79 8.64 492.79 10.624V16H491.718V11.072C491.718 9.136 490.822 8.208 488.902 8.208C486.886 8.208 486.086 9.648 486.07 11.072V16H485.014V7.472H486.07V8.976C486.486 8.336 487.51 7.232 489.382 7.232Z" fill="#E2E2E2"/>
<path d="M655.036 4.8C659.052 4.8 661.404 6.544 661.404 10.4C661.404 14.256 659.052 16 655.036 16H650.94V4.8H655.036ZM655.036 14.928C658.924 14.928 660.316 13.248 660.316 10.4C660.316 7.552 658.924 5.856 655.036 5.856H651.996V14.928H655.036ZM667.419 7.232C669.915 7.232 672.011 8.672 672.011 11.728C672.011 14.8 669.915 16.224 667.419 16.224C664.939 16.224 662.843 14.8 662.843 11.728C662.843 8.672 664.939 7.232 667.419 7.232ZM667.419 15.36C669.707 15.36 670.939 13.888 670.939 11.728C670.939 9.568 669.707 8.096 667.419 8.096C665.131 8.096 663.899 9.568 663.899 11.728C663.899 13.888 665.131 15.36 667.419 15.36ZM677.872 15.36C679.696 15.36 680.864 14.448 681.248 12.96H682.336C681.84 15.184 680 16.224 677.872 16.224C675.392 16.224 673.296 14.8 673.296 11.728C673.296 8.672 675.392 7.232 677.872 7.232C680 7.232 681.84 8.288 682.336 10.496H681.248C680.864 9.024 679.696 8.096 677.872 8.096C675.584 8.096 674.352 9.568 674.352 11.728C674.352 13.888 675.584 15.36 677.872 15.36ZM690.969 7.472H692.025V16H690.969V14.48C690.553 15.12 689.529 16.224 687.657 16.224C685.497 16.224 684.249 14.816 684.249 12.848V7.472H685.321V12.384C685.321 14.32 686.217 15.248 688.137 15.248C690.153 15.248 690.953 13.808 690.969 12.4V7.472ZM704.769 7.232C706.913 7.232 707.857 8.64 707.857 10.624V16H706.801V11.072C706.801 9.136 706.145 8.208 704.273 8.208C702.417 8.208 701.76 9.648 701.76 11.072V16H700.705V11.072C700.705 9.136 700.033 8.208 698.177 8.208C696.305 8.208 695.664 9.648 695.664 11.072V16H694.593V7.472H695.664V8.896C696.001 8.256 696.865 7.232 698.657 7.232C700.193 7.232 701.121 7.952 701.521 9.088C701.809 8.464 702.753 7.232 704.769 7.232ZM714.389 7.232C717.077 7.232 719.077 8.96 718.885 12.176H710.869C711.045 14.08 712.357 15.36 714.485 15.36C716.133 15.36 717.125 14.672 717.621 13.536H718.693C718.085 15.296 716.501 16.224 714.485 16.224C712.005 16.224 709.781 14.8 709.781 11.728C709.781 8.672 711.893 7.232 714.389 7.232ZM710.869 11.264H717.845C717.733 9.456 716.501 8.096 714.389 8.096C712.277 8.096 711.045 9.36 710.869 11.264ZM725.195 7.232C727.355 7.232 728.603 8.64 728.603 10.624V16H727.531V11.072C727.531 9.136 726.635 8.208 724.715 8.208C722.699 8.208 721.899 9.648 721.883 11.072V16H720.827V7.472H721.883V8.976C722.299 8.336 723.323 7.232 725.195 7.232ZM735.946 8.368H733.082V13.12C733.082 14.992 733.658 15.344 735.946 15.12V16.016C735.642 16.096 735.386 16.128 734.874 16.128C732.842 16.128 732.01 15.376 732.01 13.12V8.368H730.058V7.472H732.01V5.248H733.082V7.472H735.946V8.368ZM741.63 7.232C743.71 7.232 745.47 7.888 745.47 10.576V16H744.398V14.656C743.87 15.296 742.718 16.224 740.718 16.224C738.494 16.224 737.39 15.184 737.39 13.728C737.39 12.336 738.19 11.056 741.39 11.056C742.446 11.056 743.374 11.104 744.398 11.152V10.576C744.398 8.832 743.646 8.096 741.63 8.096C739.806 8.096 739.118 8.768 738.91 9.744H737.838C738.014 8.128 739.518 7.232 741.63 7.232ZM740.894 15.36C742.67 15.36 743.87 14.48 744.398 13.76V12.032C743.294 11.968 742.526 11.936 741.55 11.936C739.694 11.936 738.494 12.352 738.494 13.68C738.494 14.88 739.534 15.36 740.894 15.36ZM748.03 4.192H749.086V16H748.03V4.192ZM766.116 16L764.756 13.12H757.876L756.516 16H755.316L760.628 4.8H762.004L767.316 16H766.116ZM758.372 12.064H764.26L761.316 5.824L758.372 12.064ZM773.117 7.232C775.277 7.232 776.525 8.64 776.525 10.624V16H775.453V11.072C775.453 9.136 774.557 8.208 772.637 8.208C770.621 8.208 769.821 9.648 769.805 11.072V16H768.749V7.472H769.805V8.976C770.221 8.336 771.245 7.232 773.117 7.232ZM782.536 7.232C784.616 7.232 786.376 7.888 786.376 10.576V16H785.304V14.656C784.776 15.296 783.624 16.224 781.624 16.224C779.4 16.224 778.296 15.184 778.296 13.728C778.296 12.336 779.096 11.056 782.296 11.056C783.352 11.056 784.28 11.104 785.304 11.152V10.576C785.304 8.832 784.552 8.096 782.536 8.096C780.712 8.096 780.024 8.768 779.816 9.744H778.744C778.92 8.128 780.424 7.232 782.536 7.232ZM781.8 15.36C783.576 15.36 784.776 14.48 785.304 13.76V12.032C784.2 11.968 783.432 11.936 782.456 11.936C780.6 11.936 779.4 12.352 779.4 13.68C779.4 14.88 780.44 15.36 781.8 15.36ZM788.936 4.192H789.992V16H788.936V4.192ZM800.073 7.472L795.065 18.672H793.897L795.097 16L791.273 7.472H792.441L795.673 14.688L798.921 7.472H800.073ZM804.906 11.232C807.21 11.6 808.922 11.696 808.922 13.728C808.922 15.376 807.29 16.224 805.066 16.224C802.714 16.224 800.714 15.44 800.714 13.552H801.786C801.786 14.848 803.482 15.328 805.066 15.328C806.522 15.328 807.85 14.88 807.85 13.728C807.85 12.464 806.282 12.528 804.586 12.224C802.73 11.888 801.002 11.68 801.002 9.696C801.002 8.176 802.506 7.232 804.65 7.232C807.066 7.232 808.474 8.176 808.474 9.744H807.418C807.418 8.848 806.538 8.112 804.65 8.112C802.954 8.112 802.074 8.736 802.074 9.696C802.074 10.8 803.258 10.96 804.906 11.232ZM815.462 8.368H812.598V13.12C812.598 14.992 813.174 15.344 815.462 15.12V16.016C815.158 16.096 814.902 16.128 814.39 16.128C812.358 16.128 811.526 15.376 811.526 13.12V8.368H809.574V7.472H811.526V5.248H812.598V7.472H815.462V8.368Z" fill="#E2E2E2"/>
<rect x="0.5" y="52" width="855" height="2" rx="1" fill="#F4CE14"/>
<path d="M671.884 89.936C674.924 90.32 676.492 90.656 676.492 92.896C676.492 94.88 674.812 96.224 671.452 96.224C668.076 96.224 666.076 95.056 665.98 92.896H667.052C667.18 94.832 669.548 95.2 671.452 95.2C673.564 95.2 675.388 94.608 675.388 92.976C675.388 91.44 674.108 91.28 671.708 90.976C668.108 90.528 666.364 90.176 666.364 87.824C666.364 85.632 668.428 84.56 671.052 84.56C673.74 84.56 675.708 85.424 675.852 87.68H674.78C674.604 86.112 673.132 85.6 671.052 85.6C669.036 85.6 667.452 86.176 667.452 87.824C667.452 89.44 669.02 89.568 671.884 89.936ZM682.745 87.232C685.241 87.232 687.033 88.752 687.033 91.728C687.033 94.704 685.241 96.224 682.745 96.224C681.097 96.224 679.993 95.488 679.321 94.496V98.672H678.249V87.472H679.321V88.928C679.977 87.952 681.081 87.232 682.745 87.232ZM682.617 95.36C685.081 95.36 685.961 93.664 685.961 91.728C685.961 89.792 685.065 88.096 682.617 88.096C680.153 88.096 679.161 89.824 679.161 91.728C679.161 93.648 680.137 95.36 682.617 95.36ZM692.552 87.232C694.632 87.232 696.392 87.888 696.392 90.576V96H695.32V94.656C694.792 95.296 693.64 96.224 691.64 96.224C689.416 96.224 688.312 95.184 688.312 93.728C688.312 92.336 689.112 91.056 692.312 91.056C693.368 91.056 694.296 91.104 695.32 91.152V90.576C695.32 88.832 694.568 88.096 692.552 88.096C690.728 88.096 690.04 88.768 689.832 89.744H688.76C688.936 88.128 690.44 87.232 692.552 87.232ZM691.816 95.36C693.592 95.36 694.792 94.48 695.32 93.76V92.032C694.216 91.968 693.448 91.936 692.472 91.936C690.616 91.936 689.416 92.352 689.416 93.68C689.416 94.88 690.456 95.36 691.816 95.36ZM698.952 96V87.472H700.024V96H698.952ZM699.48 86.08C699.08 86.08 698.808 85.856 698.808 85.456C698.808 85.056 699.08 84.832 699.48 84.832C699.88 84.832 700.168 85.056 700.168 85.456C700.168 85.856 699.88 86.08 699.48 86.08ZM706.945 87.232C709.105 87.232 710.353 88.64 710.353 90.624V96H709.281V91.072C709.281 89.136 708.385 88.208 706.465 88.208C704.449 88.208 703.649 89.648 703.633 91.072V96H702.577V87.472H703.633V88.976C704.049 88.336 705.073 87.232 706.945 87.232ZM717.718 91.04H722.502V91.936H717.718V91.04ZM739.538 96L738.178 93.12H731.298L729.938 96H728.738L734.05 84.8H735.426L740.738 96H739.538ZM731.794 92.064H737.682L734.738 85.824L731.794 92.064ZM742.171 96V87.472H743.243V96H742.171ZM742.699 86.08C742.299 86.08 742.027 85.856 742.027 85.456C742.027 85.056 742.299 84.832 742.699 84.832C743.099 84.832 743.387 85.056 743.387 85.456C743.387 85.856 743.099 86.08 742.699 86.08ZM750.42 87.232C750.708 87.232 750.932 87.264 751.22 87.296V88.448H751.14C750.804 88.368 750.452 88.288 749.988 88.288C747.668 88.288 746.868 89.872 746.868 91.168V96H745.796V87.472H746.868V89.12C747.204 88.48 748.196 87.232 750.42 87.232ZM752.983 84.192H754.039V96H752.983V84.192ZM756.593 96V87.472H757.664V96H756.593ZM757.121 86.08C756.721 86.08 756.449 85.856 756.449 85.456C756.449 85.056 756.721 84.832 757.121 84.832C757.521 84.832 757.809 85.056 757.809 85.456C757.809 85.856 757.521 86.08 757.121 86.08ZM764.586 87.232C766.746 87.232 767.994 88.64 767.994 90.624V96H766.922V91.072C766.922 89.136 766.026 88.208 764.106 88.208C762.09 88.208 761.289 89.648 761.274 91.072V96H760.218V87.472H761.274V88.976C761.69 88.336 762.714 87.232 764.586 87.232ZM774.529 87.232C777.217 87.232 779.217 88.96 779.025 92.176H771.009C771.185 94.08 772.497 95.36 774.625 95.36C776.273 95.36 777.265 94.672 777.761 93.536H778.833C778.225 95.296 776.641 96.224 774.625 96.224C772.145 96.224 769.921 94.8 769.921 91.728C769.921 88.672 772.033 87.232 774.529 87.232ZM771.009 91.264H777.985C777.873 89.456 776.641 88.096 774.529 88.096C772.417 88.096 771.185 89.36 771.009 91.264Z" fill="#5C5B5E"/>
<path d="M356.7 84.8C359.916 84.8 360.796 86.512 360.796 88.352C360.796 90.064 359.916 91.904 356.7 91.904H351.996V96H350.94V84.8H356.7ZM356.7 90.832C358.972 90.832 359.692 89.792 359.692 88.352C359.692 86.912 358.956 85.856 356.7 85.856H351.996V90.832H356.7ZM366.686 87.232C369.374 87.232 371.374 88.96 371.182 92.176H363.166C363.342 94.08 364.654 95.36 366.782 95.36C368.43 95.36 369.422 94.672 369.918 93.536H370.99C370.382 95.296 368.798 96.224 366.782 96.224C364.302 96.224 362.078 94.8 362.078 91.728C362.078 88.672 364.19 87.232 366.686 87.232ZM363.166 91.264H370.142C370.03 89.456 368.798 88.096 366.686 88.096C364.574 88.096 363.342 89.36 363.166 91.264ZM377.748 87.232C378.036 87.232 378.26 87.264 378.548 87.296V88.448H378.468C378.132 88.368 377.78 88.288 377.316 88.288C374.996 88.288 374.196 89.872 374.196 91.168V96H373.124V87.472H374.196V89.12C374.532 88.48 375.524 87.232 377.748 87.232ZM387.031 87.472H388.087V96H387.031V94.48C386.615 95.12 385.591 96.224 383.719 96.224C381.559 96.224 380.311 94.816 380.311 92.848V87.472H381.383V92.384C381.383 94.32 382.279 95.248 384.199 95.248C386.215 95.248 387.015 93.808 387.031 92.4V87.472ZM395.452 91.04H400.236V91.936H395.452V91.04ZM416.233 94.928V96H407.753V84.8H416.073V85.856H408.825V89.712H415.625V90.784H408.825V94.928H416.233ZM422.247 95.36C424.071 95.36 425.239 94.448 425.623 92.96H426.711C426.215 95.184 424.375 96.224 422.247 96.224C419.767 96.224 417.671 94.8 417.671 91.728C417.671 88.672 419.767 87.232 422.247 87.232C424.375 87.232 426.215 88.288 426.711 90.496H425.623C425.239 89.024 424.071 88.096 422.247 88.096C419.959 88.096 418.727 89.568 418.727 91.728C418.727 93.888 419.959 95.36 422.247 95.36ZM432.56 87.232C435.056 87.232 437.152 88.672 437.152 91.728C437.152 94.8 435.056 96.224 432.56 96.224C430.08 96.224 427.984 94.8 427.984 91.728C427.984 88.672 430.08 87.232 432.56 87.232ZM432.56 95.36C434.848 95.36 436.08 93.888 436.08 91.728C436.08 89.568 434.848 88.096 432.56 88.096C430.272 88.096 429.04 89.568 429.04 91.728C429.04 93.888 430.272 95.36 432.56 95.36ZM449.253 87.232C451.397 87.232 452.341 88.64 452.341 90.624V96H451.285V91.072C451.285 89.136 450.629 88.208 448.757 88.208C446.901 88.208 446.245 89.648 446.245 91.072V96H445.189V91.072C445.189 89.136 444.517 88.208 442.661 88.208C440.789 88.208 440.149 89.648 440.149 91.072V96H439.077V87.472H440.149V88.896C440.485 88.256 441.349 87.232 443.141 87.232C444.677 87.232 445.605 87.952 446.005 89.088C446.293 88.464 447.237 87.232 449.253 87.232ZM465.081 87.232C467.225 87.232 468.169 88.64 468.169 90.624V96H467.113V91.072C467.113 89.136 466.457 88.208 464.585 88.208C462.729 88.208 462.073 89.648 462.073 91.072V96H461.017V91.072C461.017 89.136 460.345 88.208 458.489 88.208C456.617 88.208 455.977 89.648 455.977 91.072V96H454.905V87.472H455.977V88.896C456.313 88.256 457.177 87.232 458.969 87.232C460.505 87.232 461.433 87.952 461.833 89.088C462.121 88.464 463.065 87.232 465.081 87.232ZM474.701 87.232C477.389 87.232 479.389 88.96 479.197 92.176H471.181C471.357 94.08 472.669 95.36 474.797 95.36C476.445 95.36 477.437 94.672 477.933 93.536H479.005C478.397 95.296 476.813 96.224 474.797 96.224C472.317 96.224 470.093 94.8 470.093 91.728C470.093 88.672 472.205 87.232 474.701 87.232ZM471.181 91.264H478.157C478.045 89.456 476.813 88.096 474.701 88.096C472.589 88.096 471.357 89.36 471.181 91.264ZM485.763 87.232C486.051 87.232 486.275 87.264 486.563 87.296V88.448H486.483C486.147 88.368 485.795 88.288 485.331 88.288C483.011 88.288 482.211 89.872 482.211 91.168V96H481.139V87.472H482.211V89.12C482.547 88.48 483.539 87.232 485.763 87.232ZM492.107 95.36C493.931 95.36 495.099 94.448 495.483 92.96H496.571C496.075 95.184 494.235 96.224 492.107 96.224C489.627 96.224 487.531 94.8 487.531 91.728C487.531 88.672 489.627 87.232 492.107 87.232C494.235 87.232 496.075 88.288 496.571 90.496H495.483C495.099 89.024 493.931 88.096 492.107 88.096C489.819 88.096 488.587 89.568 488.587 91.728C488.587 93.888 489.819 95.36 492.107 95.36ZM502.451 87.232C505.139 87.232 507.139 88.96 506.947 92.176H498.931C499.107 94.08 500.419 95.36 502.547 95.36C504.195 95.36 505.187 94.672 505.683 93.536H506.755C506.147 95.296 504.563 96.224 502.547 96.224C500.067 96.224 497.843 94.8 497.843 91.728C497.843 88.672 499.955 87.232 502.451 87.232ZM498.931 91.264H505.907C505.795 89.456 504.563 88.096 502.451 88.096C500.339 88.096 499.107 89.36 498.931 91.264Z" fill="#5C5B5E"/>
<path d="M25.7 84.8C28.916 84.8 29.796 86.512 29.796 88.352C29.796 90.064 28.916 91.904 25.7 91.904H20.996V96H19.94V84.8H25.7ZM25.7 90.832C27.972 90.832 28.692 89.792 28.692 88.352C28.692 86.912 27.956 85.856 25.7 85.856H20.996V90.832H25.7ZM35.6855 87.232C38.3735 87.232 40.3735 88.96 40.1815 92.176H32.1655C32.3415 94.08 33.6535 95.36 35.7815 95.36C37.4295 95.36 38.4215 94.672 38.9175 93.536H39.9895C39.3815 95.296 37.7975 96.224 35.7815 96.224C33.3015 96.224 31.0775 94.8 31.0775 91.728C31.0775 88.672 33.1895 87.232 35.6855 87.232ZM32.1655 91.264H39.1415C39.0295 89.456 37.7975 88.096 35.6855 88.096C33.5735 88.096 32.3415 89.36 32.1655 91.264ZM46.7478 87.232C47.0358 87.232 47.2598 87.264 47.5478 87.296V88.448H47.4678C47.1318 88.368 46.7798 88.288 46.3158 88.288C43.9958 88.288 43.1957 89.872 43.1957 91.168V96H42.1238V87.472H43.1957V89.12C43.5318 88.48 44.5238 87.232 46.7478 87.232ZM56.0312 87.472H57.0873V96H56.0312V94.48C55.6153 95.12 54.5913 96.224 52.7193 96.224C50.5593 96.224 49.3113 94.816 49.3113 92.848V87.472H50.3832V92.384C50.3832 94.32 51.2793 95.248 53.1993 95.248C55.2153 95.248 56.0153 93.808 56.0312 92.4V87.472ZM64.4519 91.04H69.2359V91.936H64.4519V91.04ZM85.4885 84.8V85.856H81.2485V96H80.1925V85.856H75.9525V84.8H85.4885ZM90.0918 87.232C92.7798 87.232 94.7798 88.96 94.5878 92.176H86.5718C86.7478 94.08 88.0598 95.36 90.1878 95.36C91.8358 95.36 92.8278 94.672 93.3238 93.536H94.3958C93.7878 95.296 92.2038 96.224 90.1878 96.224C87.7078 96.224 85.4838 94.8 85.4838 91.728C85.4838 88.672 87.5958 87.232 90.0918 87.232ZM86.5718 91.264H93.5478C93.4358 89.456 92.2038 88.096 90.0918 88.096C87.9798 88.096 86.7478 89.36 86.5718 91.264ZM104.31 96H102.918L99.8618 92.416L96.8058 96H95.4138L99.1578 91.6L95.6217 87.472H97.0298L99.8618 90.784L102.694 87.472H104.086L100.55 91.6L104.31 96ZM110.837 88.368H107.973V93.12C107.973 94.992 108.549 95.344 110.837 95.12V96.016C110.533 96.096 110.277 96.128 109.765 96.128C107.733 96.128 106.901 95.376 106.901 93.12V88.368H104.949V87.472H106.901V85.248H107.973V87.472H110.837V88.368ZM112.921 96V87.472H113.993V96H112.921ZM113.449 86.08C113.049 86.08 112.777 85.856 112.777 85.456C112.777 85.056 113.049 84.832 113.449 84.832C113.849 84.832 114.137 85.056 114.137 85.456C114.137 85.856 113.849 86.08 113.449 86.08ZM116.546 84.192H117.602V96H116.546V84.192ZM125.112 84.8H126.184V96H125.112V84.8ZM133.273 87.232C135.433 87.232 136.681 88.64 136.681 90.624V96H135.609V91.072C135.609 89.136 134.713 88.208 132.793 88.208C130.777 88.208 129.977 89.648 129.961 91.072V96H128.905V87.472H129.961V88.976C130.377 88.336 131.401 87.232 133.273 87.232ZM146.321 84.8H147.393V96H146.321V94.544C145.665 95.504 144.561 96.224 142.897 96.224C140.401 96.224 138.609 94.704 138.609 91.728C138.609 88.752 140.401 87.232 142.897 87.232C144.545 87.232 145.649 87.984 146.321 88.976V84.8ZM143.041 95.36C145.489 95.36 146.481 93.648 146.481 91.728C146.481 89.824 145.505 88.096 143.041 88.096C140.561 88.096 139.681 89.792 139.681 91.728C139.681 93.664 140.577 95.36 143.041 95.36ZM156.672 87.472H157.728V96H156.672V94.48C156.256 95.12 155.232 96.224 153.36 96.224C151.2 96.224 149.952 94.816 149.952 92.848V87.472H151.024V92.384C151.024 94.32 151.92 95.248 153.84 95.248C155.856 95.248 156.656 93.808 156.672 92.4V87.472ZM163.688 91.232C165.992 91.6 167.704 91.696 167.704 93.728C167.704 95.376 166.072 96.224 163.848 96.224C161.496 96.224 159.496 95.44 159.496 93.552H160.568C160.568 94.848 162.264 95.328 163.848 95.328C165.304 95.328 166.632 94.88 166.632 93.728C166.632 92.464 165.064 92.528 163.368 92.224C161.512 91.888 159.784 91.68 159.784 89.696C159.784 88.176 161.288 87.232 163.432 87.232C165.848 87.232 167.256 88.176 167.256 89.744H166.2C166.2 88.848 165.32 88.112 163.432 88.112C161.736 88.112 160.856 88.736 160.856 89.696C160.856 90.8 162.04 90.96 163.688 91.232ZM174.243 88.368H171.379V93.12C171.379 94.992 171.955 95.344 174.243 95.12V96.016C173.939 96.096 173.683 96.128 173.171 96.128C171.139 96.128 170.307 95.376 170.307 93.12V88.368H168.355V87.472H170.307V85.248H171.379V87.472H174.243V88.368ZM180.951 87.232C181.239 87.232 181.463 87.264 181.751 87.296V88.448H181.671C181.335 88.368 180.983 88.288 180.519 88.288C178.199 88.288 177.399 89.872 177.399 91.168V96H176.327V87.472H177.399V89.12C177.735 88.48 178.727 87.232 180.951 87.232ZM191.511 87.472L186.503 98.672H185.335L186.535 96L182.711 87.472H183.879L187.111 94.688L190.359 87.472H191.511Z" fill="#5C5B5E"/>
</svg>
