<svg width="855" height="95" viewBox="0 0 855 95" fill="none" xmlns="http://www.w3.org/2000/svg">
<path d="M268 48.9999C268 52.8659 264.866 55.9999 261 55.9999C257.134 55.9999 254 52.8659 254 48.9999C254 45.1339 257.134 41.9999 261 41.9999C264.866 41.9999 268 45.1339 268 48.9999Z" fill="#2E00B0"/>
<path d="M598 48.9999C598 52.8659 594.866 55.9999 591 55.9999C587.134 55.9999 584 52.8659 584 48.9999C584 45.1339 587.134 41.9999 591 41.9999C594.866 41.9999 598 45.1339 598 48.9999Z" fill="#2E00B0"/>
<path d="M243.696 90.9279H251.872V91.9999H242.48C242.48 86.1759 250.544 87.9679 250.544 83.8559C250.544 82.3359 249.424 81.4559 247.36 81.4559C244.976 81.4559 244.176 82.7039 244.032 83.8559H242.928C243.152 81.7439 244.944 80.5599 247.408 80.5599C249.808 80.5599 251.6 81.5519 251.6 83.9519C251.6 88.5279 244.256 87.3119 243.696 90.9279Z" fill="#E2E2E2"/>
<path d="M257.863 80.5599C260.663 80.5599 262.743 82.5279 262.743 86.3999C262.743 90.2559 260.663 92.2239 257.863 92.2239C255.063 92.2239 252.999 90.2559 252.999 86.3999C252.999 82.5279 255.063 80.5599 257.863 80.5599ZM257.863 91.3119C260.535 91.3119 261.671 89.2479 261.671 86.3999C261.671 83.5359 260.535 81.4719 257.863 81.4719C255.191 81.4719 254.055 83.5359 254.055 86.3999C254.055 89.2479 255.191 91.3119 257.863 91.3119Z" fill="#E2E2E2"/>
<path d="M264.602 90.9279H272.778V91.9999H263.386C263.386 86.1759 271.45 87.9679 271.45 83.8559C271.45 82.3359 270.33 81.4559 268.266 81.4559C265.882 81.4559 265.082 82.7039 264.938 83.8559H263.834C264.058 81.7439 265.85 80.5599 268.314 80.5599C270.714 80.5599 272.506 81.5519 272.506 83.9519C272.506 88.5279 265.162 87.3119 264.602 90.9279Z" fill="#E2E2E2"/>
<path d="M277.406 80.8159H278.126V92.0159H277.07V81.9679L273.902 83.9359V82.9919L277.406 80.8159Z" fill="#E2E2E2"/>
<path d="M571.696 90.9279H579.872V91.9999H570.48C570.48 86.1759 578.544 87.9679 578.544 83.8559C578.544 82.3359 577.424 81.4559 575.36 81.4559C572.976 81.4559 572.176 82.7039 572.032 83.8559H570.928C571.152 81.7439 572.944 80.5599 575.408 80.5599C577.808 80.5599 579.6 81.5519 579.6 83.9519C579.6 88.5279 572.256 87.3119 571.696 90.9279Z" fill="#E2E2E2"/>
<path d="M585.863 80.5599C588.663 80.5599 590.743 82.5279 590.743 86.3999C590.743 90.2559 588.663 92.2239 585.863 92.2239C583.063 92.2239 580.999 90.2559 580.999 86.3999C580.999 82.5279 583.063 80.5599 585.863 80.5599ZM585.863 91.3119C588.535 91.3119 589.671 89.2479 589.671 86.3999C589.671 83.5359 588.535 81.4719 585.863 81.4719C583.191 81.4719 582.055 83.5359 582.055 86.3999C582.055 89.2479 583.191 91.3119 585.863 91.3119Z" fill="#E2E2E2"/>
<path d="M592.602 90.9279H600.778V91.9999H591.386C591.386 86.1759 599.45 87.9679 599.45 83.8559C599.45 82.3359 598.33 81.4559 596.266 81.4559C593.882 81.4559 593.082 82.7039 592.938 83.8559H591.834C592.058 81.7439 593.85 80.5599 596.314 80.5599C598.714 80.5599 600.506 81.5519 600.506 83.9519C600.506 88.5279 593.162 87.3119 592.602 90.9279Z" fill="#E2E2E2"/>
<path d="M608.814 86.0959C610.334 86.3359 611.63 87.0079 611.63 88.7359C611.63 91.0239 609.806 92.2239 606.91 92.2239C603.662 92.2239 601.966 90.9279 601.902 89.0719H603.006C603.166 90.2079 604.03 91.3119 606.91 91.3119C609.102 91.3119 610.574 90.4959 610.574 88.7039C610.574 87.2159 609.358 86.6559 607.39 86.6559H605.198V85.6799H607.39C609.182 85.6799 610.014 84.9599 610.014 83.6959C610.014 82.4639 609.054 81.4719 606.734 81.4719C604.43 81.4719 603.582 82.4799 603.374 83.4079H602.286C602.574 81.4879 604.59 80.5599 606.782 80.5599C609.198 80.5599 611.07 81.5839 611.07 83.6639C611.07 85.0879 610.062 85.7759 608.814 86.0959Z" fill="#E2E2E2"/>
<path d="M52.696 0.799894H54.04V11.9999H52.968V2.49589L47.848 11.9999H46.616L41.496 2.49589V11.9999H40.44V0.799894H41.784L47.24 10.9279L52.696 0.799894Z" fill="#E2E2E2"/>
<path d="M60.3644 3.23189C62.4444 3.23189 64.2044 3.88789 64.2044 6.57589V11.9999H63.1324V10.6559C62.6044 11.2959 61.4524 12.2239 59.4524 12.2239C57.2284 12.2239 56.1244 11.1839 56.1244 9.72789C56.1244 8.33589 56.9244 7.05589 60.1244 7.05589C61.1804 7.05589 62.1084 7.10389 63.1324 7.1519V6.57589C63.1324 4.83189 62.3804 4.09589 60.3644 4.09589C58.5404 4.09589 57.8524 4.76789 57.6444 5.74389H56.5724C56.7484 4.12789 58.2524 3.23189 60.3644 3.23189ZM59.6284 11.3599C61.4044 11.3599 62.6044 10.4799 63.1324 9.7599V8.03189C62.0284 7.96789 61.2604 7.93589 60.2844 7.93589C58.4284 7.93589 57.2284 8.3519 57.2284 9.6799C57.2284 10.8799 58.2684 11.3599 59.6284 11.3599Z" fill="#E2E2E2"/>
<path d="M71.3884 3.23189C71.6764 3.23189 71.9004 3.2639 72.1884 3.29589V4.44789H72.1084C71.7724 4.36789 71.4204 4.28789 70.9564 4.28789C68.6364 4.28789 67.8364 5.87189 67.8364 7.16789V11.9999H66.7644V3.47189H67.8364V5.11989C68.1724 4.47989 69.1644 3.23189 71.3884 3.23189Z" fill="#E2E2E2"/>
<path d="M80.8159 11.9999L77.4239 7.6319L75.0079 9.87189V11.9999H73.9519V0.799894H75.0079V8.4159L80.3359 3.47189H81.9039L78.2079 6.8959L82.1439 11.9999H80.8159Z" fill="#E2E2E2"/>
<path d="M87.5605 3.23189C90.2485 3.23189 92.2485 4.95989 92.0565 8.17589H84.0405C84.2165 10.0799 85.5285 11.3599 87.6565 11.3599C89.3045 11.3599 90.2965 10.6719 90.7925 9.53589H91.8645C91.2565 11.2959 89.6725 12.2239 87.6565 12.2239C85.1765 12.2239 82.9525 10.7999 82.9525 7.72789C82.9525 4.67189 85.0645 3.23189 87.5605 3.23189ZM84.0405 7.2639H91.0165C90.9045 5.45589 89.6725 4.09589 87.5605 4.09589C85.4485 4.09589 84.2165 5.35989 84.0405 7.2639Z" fill="#E2E2E2"/>
<path d="M98.7743 4.36789H95.9102V9.11989C95.9102 10.9919 96.4863 11.3439 98.7743 11.1199V12.0159C98.4703 12.0959 98.2142 12.1279 97.7022 12.1279C95.6702 12.1279 94.8382 11.3759 94.8382 9.11989V4.36789H92.8863V3.47189H94.8382V1.24789H95.9102V3.47189H98.7743V4.36789Z" fill="#E2E2E2"/>
<path d="M100.858 11.9999V3.47189H101.93V11.9999H100.858ZM101.386 2.0799C100.986 2.0799 100.714 1.8559 100.714 1.45589C100.714 1.05589 100.986 0.831895 101.386 0.831895C101.786 0.831895 102.074 1.05589 102.074 1.45589C102.074 1.8559 101.786 2.0799 101.386 2.0799Z" fill="#E2E2E2"/>
<path d="M108.851 3.23189C111.011 3.23189 112.259 4.63989 112.259 6.62389V11.9999H111.187V7.07189C111.187 5.13589 110.291 4.20789 108.371 4.20789C106.355 4.20789 105.555 5.64789 105.539 7.07189V11.9999H104.483V3.47189H105.539V4.97589C105.955 4.33589 106.979 3.23189 108.851 3.23189Z" fill="#E2E2E2"/>
<path d="M121.899 3.47189H122.971V11.1839C122.971 14.4799 120.587 14.9759 118.587 14.9759C116.427 14.9759 114.555 14.1759 114.379 12.5599H115.451C115.675 13.4879 116.747 14.0799 118.587 14.0799C120.507 14.0799 121.899 13.5359 121.899 11.1839V10.0319C121.275 10.9439 120.219 11.6159 118.523 11.6159C116.043 11.6159 114.187 10.2079 114.187 7.42389C114.187 4.65589 116.043 3.23189 118.523 3.23189C120.203 3.23189 121.275 3.93589 121.899 4.86389V3.47189ZM118.667 10.7519C121.051 10.7519 122.059 9.21589 122.059 7.42389C122.059 5.63189 121.035 4.09589 118.667 4.09589C116.299 4.09589 115.259 5.4879 115.259 7.42389C115.259 9.35989 116.283 10.7519 118.667 10.7519Z" fill="#E2E2E2"/>
<path d="M140.007 11.9999L138.647 9.11989H131.767L130.407 11.9999H129.207L134.519 0.799894H135.895L141.207 11.9999H140.007ZM132.263 8.0639H138.151L135.207 1.82389L132.263 8.0639Z" fill="#E2E2E2"/>
<path d="M147.007 3.23189C149.167 3.23189 150.415 4.63989 150.415 6.62389V11.9999H149.343V7.07189C149.343 5.13589 148.447 4.20789 146.527 4.20789C144.511 4.20789 143.711 5.64789 143.695 7.07189V11.9999H142.639V3.47189H143.695V4.97589C144.111 4.33589 145.135 3.23189 147.007 3.23189Z" fill="#E2E2E2"/>
<path d="M156.427 3.23189C158.507 3.23189 160.267 3.88789 160.267 6.57589V11.9999H159.195V10.6559C158.667 11.2959 157.515 12.2239 155.515 12.2239C153.291 12.2239 152.187 11.1839 152.187 9.72789C152.187 8.33589 152.987 7.05589 156.187 7.05589C157.243 7.05589 158.171 7.10389 159.195 7.1519V6.57589C159.195 4.83189 158.443 4.09589 156.427 4.09589C154.603 4.09589 153.915 4.76789 153.707 5.74389H152.635C152.811 4.12789 154.315 3.23189 156.427 3.23189ZM155.691 11.3599C157.467 11.3599 158.667 10.4799 159.195 9.7599V8.03189C158.091 7.96789 157.323 7.93589 156.347 7.93589C154.491 7.93589 153.291 8.3519 153.291 9.6799C153.291 10.8799 154.331 11.3599 155.691 11.3599Z" fill="#E2E2E2"/>
<path d="M162.827 0.191895H163.883V11.9999H162.827V0.191895Z" fill="#E2E2E2"/>
<path d="M173.964 3.47189L168.956 14.6719H167.788L168.988 11.9999L165.164 3.47189H166.332L169.564 10.6879L172.812 3.47189H173.964Z" fill="#E2E2E2"/>
<path d="M178.797 7.23189C181.101 7.5999 182.813 7.69589 182.813 9.72789C182.813 11.3759 181.181 12.2239 178.957 12.2239C176.605 12.2239 174.605 11.4399 174.605 9.5519H175.677C175.677 10.8479 177.373 11.3279 178.957 11.3279C180.413 11.3279 181.741 10.8799 181.741 9.72789C181.741 8.46389 180.173 8.5279 178.477 8.2239C176.621 7.8879 174.893 7.67989 174.893 5.69589C174.893 4.17589 176.397 3.23189 178.541 3.23189C180.957 3.23189 182.365 4.17589 182.365 5.74389H181.309C181.309 4.84789 180.429 4.11189 178.541 4.11189C176.845 4.11189 175.965 4.73589 175.965 5.69589C175.965 6.79989 177.149 6.95989 178.797 7.23189Z" fill="#E2E2E2"/>
<path d="M189.352 4.36789H186.488V9.11989C186.488 10.9919 187.064 11.3439 189.352 11.1199V12.0159C189.048 12.0959 188.792 12.1279 188.28 12.1279C186.248 12.1279 185.416 11.3759 185.416 9.11989V4.36789H183.464V3.47189H185.416V1.24789H186.488V3.47189H189.352V4.36789Z" fill="#E2E2E2"/>
<path d="M351.536 0.799894C355.552 0.799894 357.904 2.54389 357.904 6.39989C357.904 10.2559 355.552 11.9999 351.536 11.9999H347.44V0.799894H351.536ZM351.536 10.9279C355.424 10.9279 356.816 9.2479 356.816 6.39989C356.816 3.5519 355.424 1.8559 351.536 1.8559H348.496V10.9279H351.536Z" fill="#E2E2E2"/>
<path d="M363.427 3.23189C365.507 3.23189 367.267 3.88789 367.267 6.57589V11.9999H366.195V10.6559C365.667 11.2959 364.515 12.2239 362.515 12.2239C360.291 12.2239 359.187 11.1839 359.187 9.72789C359.187 8.33589 359.987 7.05589 363.187 7.05589C364.243 7.05589 365.171 7.10389 366.195 7.1519V6.57589C366.195 4.83189 365.443 4.09589 363.427 4.09589C361.603 4.09589 360.915 4.76789 360.707 5.74389H359.635C359.811 4.12789 361.315 3.23189 363.427 3.23189ZM362.691 11.3599C364.467 11.3599 365.667 10.4799 366.195 9.7599V8.03189C365.091 7.96789 364.323 7.93589 363.347 7.93589C361.491 7.93589 360.291 8.3519 360.291 9.6799C360.291 10.8799 361.331 11.3599 362.691 11.3599Z" fill="#E2E2E2"/>
<path d="M374.602 4.36789H371.738V9.11989C371.738 10.9919 372.314 11.3439 374.602 11.1199V12.0159C374.298 12.0959 374.042 12.1279 373.53 12.1279C371.498 12.1279 370.666 11.3759 370.666 9.11989V4.36789H368.714V3.47189H370.666V1.24789H371.738V3.47189H374.602V4.36789Z" fill="#E2E2E2"/>
<path d="M380.286 3.23189C382.366 3.23189 384.126 3.88789 384.126 6.57589V11.9999H383.054V10.6559C382.526 11.2959 381.374 12.2239 379.374 12.2239C377.15 12.2239 376.046 11.1839 376.046 9.72789C376.046 8.33589 376.846 7.05589 380.046 7.05589C381.102 7.05589 382.03 7.10389 383.054 7.1519V6.57589C383.054 4.83189 382.302 4.09589 380.286 4.09589C378.462 4.09589 377.774 4.76789 377.566 5.74389H376.494C376.67 4.12789 378.174 3.23189 380.286 3.23189ZM379.55 11.3599C381.326 11.3599 382.526 10.4799 383.054 9.7599V8.03189C381.95 7.96789 381.182 7.93589 380.206 7.93589C378.35 7.93589 377.15 8.3519 377.15 9.6799C377.15 10.8799 378.19 11.3599 379.55 11.3599Z" fill="#E2E2E2"/>
<path d="M401.179 0.799894H402.379L397.067 11.9999H395.675L390.363 0.799894H391.579L396.379 10.9759L401.179 0.799894Z" fill="#E2E2E2"/>
<path d="M403.827 11.9999V3.47189H404.899V11.9999H403.827ZM404.355 2.0799C403.955 2.0799 403.683 1.8559 403.683 1.45589C403.683 1.05589 403.955 0.831895 404.355 0.831895C404.755 0.831895 405.043 1.05589 405.043 1.45589C405.043 1.8559 404.755 2.0799 404.355 2.0799Z" fill="#E2E2E2"/>
<path d="M410.844 7.23189C413.148 7.5999 414.86 7.69589 414.86 9.72789C414.86 11.3759 413.228 12.2239 411.004 12.2239C408.652 12.2239 406.652 11.4399 406.652 9.5519H407.724C407.724 10.8479 409.42 11.3279 411.004 11.3279C412.46 11.3279 413.788 10.8799 413.788 9.72789C413.788 8.46389 412.22 8.5279 410.524 8.2239C408.668 7.8879 406.94 7.67989 406.94 5.69589C406.94 4.17589 408.444 3.23189 410.588 3.23189C413.004 3.23189 414.412 4.17589 414.412 5.74389H413.356C413.356 4.84789 412.476 4.11189 410.588 4.11189C408.892 4.11189 408.012 4.73589 408.012 5.69589C408.012 6.79989 409.196 6.95989 410.844 7.23189Z" fill="#E2E2E2"/>
<path d="M423.344 3.47189H424.4V11.9999H423.344V10.4799C422.928 11.1199 421.904 12.2239 420.032 12.2239C417.872 12.2239 416.624 10.8159 416.624 8.84789V3.47189H417.696V8.38389C417.696 10.3199 418.592 11.2479 420.512 11.2479C422.528 11.2479 423.328 9.80789 423.344 8.39989V3.47189Z" fill="#E2E2E2"/>
<path d="M430.411 3.23189C432.491 3.23189 434.251 3.88789 434.251 6.57589V11.9999H433.179V10.6559C432.651 11.2959 431.499 12.2239 429.499 12.2239C427.275 12.2239 426.171 11.1839 426.171 9.72789C426.171 8.33589 426.971 7.05589 430.171 7.05589C431.227 7.05589 432.155 7.10389 433.179 7.1519V6.57589C433.179 4.83189 432.427 4.09589 430.411 4.09589C428.587 4.09589 427.899 4.76789 427.691 5.74389H426.619C426.795 4.12789 428.299 3.23189 430.411 3.23189ZM429.675 11.3599C431.451 11.3599 432.651 10.4799 433.179 9.7599V8.03189C432.075 7.96789 431.307 7.93589 430.331 7.93589C428.475 7.93589 427.275 8.3519 427.275 9.6799C427.275 10.8799 428.315 11.3599 429.675 11.3599Z" fill="#E2E2E2"/>
<path d="M436.811 0.191895H437.867V11.9999H436.811V0.191895Z" fill="#E2E2E2"/>
<path d="M440.421 11.9999V3.47189H441.493V11.9999H440.421ZM440.949 2.0799C440.549 2.0799 440.277 1.8559 440.277 1.45589C440.277 1.05589 440.549 0.831895 440.949 0.831895C441.349 0.831895 441.637 1.05589 441.637 1.45589C441.637 1.8559 441.349 2.0799 440.949 2.0799Z" fill="#E2E2E2"/>
<path d="M445.102 10.9279H451.502V11.9999H443.566V10.9279L449.806 4.52789H443.87V3.47189H451.342V4.52789L445.102 10.9279Z" fill="#E2E2E2"/>
<path d="M457.177 3.23189C459.257 3.23189 461.017 3.88789 461.017 6.57589V11.9999H459.945V10.6559C459.417 11.2959 458.265 12.2239 456.265 12.2239C454.041 12.2239 452.937 11.1839 452.937 9.72789C452.937 8.33589 453.737 7.05589 456.937 7.05589C457.993 7.05589 458.921 7.10389 459.945 7.1519V6.57589C459.945 4.83189 459.193 4.09589 457.177 4.09589C455.353 4.09589 454.665 4.76789 454.457 5.74389H453.385C453.561 4.12789 455.065 3.23189 457.177 3.23189ZM456.441 11.3599C458.217 11.3599 459.417 10.4799 459.945 9.7599V8.03189C458.841 7.96789 458.073 7.93589 457.097 7.93589C455.241 7.93589 454.041 8.3519 454.041 9.6799C454.041 10.8799 455.081 11.3599 456.441 11.3599Z" fill="#E2E2E2"/>
<path d="M468.352 4.36789H465.488V9.11989C465.488 10.9919 466.064 11.3439 468.352 11.1199V12.0159C468.048 12.0959 467.792 12.1279 467.28 12.1279C465.248 12.1279 464.416 11.3759 464.416 9.11989V4.36789H462.464V3.47189H464.416V1.24789H465.488V3.47189H468.352V4.36789Z" fill="#E2E2E2"/>
<path d="M470.436 11.9999V3.47189H471.508V11.9999H470.436ZM470.964 2.0799C470.564 2.0799 470.292 1.8559 470.292 1.45589C470.292 1.05589 470.564 0.831895 470.964 0.831895C471.364 0.831895 471.652 1.05589 471.652 1.45589C471.652 1.8559 471.364 2.0799 470.964 2.0799Z" fill="#E2E2E2"/>
<path d="M477.997 3.23189C480.493 3.23189 482.589 4.67189 482.589 7.72789C482.589 10.7999 480.493 12.2239 477.997 12.2239C475.517 12.2239 473.421 10.7999 473.421 7.72789C473.421 4.67189 475.517 3.23189 477.997 3.23189ZM477.997 11.3599C480.285 11.3599 481.517 9.8879 481.517 7.72789C481.517 5.56789 480.285 4.09589 477.997 4.09589C475.709 4.09589 474.477 5.56789 474.477 7.72789C474.477 9.8879 475.709 11.3599 477.997 11.3599Z" fill="#E2E2E2"/>
<path d="M488.882 3.23189C491.042 3.23189 492.29 4.63989 492.29 6.62389V11.9999H491.218V7.07189C491.218 5.13589 490.322 4.20789 488.402 4.20789C486.386 4.20789 485.586 5.64789 485.57 7.07189V11.9999H484.514V3.47189H485.57V4.97589C485.986 4.33589 487.01 3.23189 488.882 3.23189Z" fill="#E2E2E2"/>
<path d="M654.536 0.799894C658.552 0.799894 660.904 2.54389 660.904 6.39989C660.904 10.2559 658.552 11.9999 654.536 11.9999H650.44V0.799894H654.536ZM654.536 10.9279C658.424 10.9279 659.816 9.2479 659.816 6.39989C659.816 3.5519 658.424 1.8559 654.536 1.8559H651.496V10.9279H654.536Z" fill="#E2E2E2"/>
<path d="M666.919 3.23189C669.415 3.23189 671.511 4.67189 671.511 7.72789C671.511 10.7999 669.415 12.2239 666.919 12.2239C664.439 12.2239 662.343 10.7999 662.343 7.72789C662.343 4.67189 664.439 3.23189 666.919 3.23189ZM666.919 11.3599C669.207 11.3599 670.439 9.8879 670.439 7.72789C670.439 5.56789 669.207 4.09589 666.919 4.09589C664.631 4.09589 663.399 5.56789 663.399 7.72789C663.399 9.8879 664.631 11.3599 666.919 11.3599Z" fill="#E2E2E2"/>
<path d="M677.372 11.3599C679.196 11.3599 680.364 10.4479 680.748 8.9599H681.836C681.34 11.1839 679.5 12.2239 677.372 12.2239C674.892 12.2239 672.796 10.7999 672.796 7.72789C672.796 4.67189 674.892 3.23189 677.372 3.23189C679.5 3.23189 681.34 4.28789 681.836 6.49589H680.748C680.364 5.02389 679.196 4.09589 677.372 4.09589C675.084 4.09589 673.852 5.56789 673.852 7.72789C673.852 9.8879 675.084 11.3599 677.372 11.3599Z" fill="#E2E2E2"/>
<path d="M690.469 3.47189H691.525V11.9999H690.469V10.4799C690.053 11.1199 689.029 12.2239 687.157 12.2239C684.997 12.2239 683.749 10.8159 683.749 8.84789V3.47189H684.821V8.38389C684.821 10.3199 685.717 11.2479 687.637 11.2479C689.653 11.2479 690.453 9.80789 690.469 8.39989V3.47189Z" fill="#E2E2E2"/>
<path d="M704.268 3.23189C706.412 3.23189 707.357 4.63989 707.357 6.62389V11.9999H706.3V7.07189C706.3 5.13589 705.645 4.20789 703.773 4.20789C701.917 4.20789 701.26 5.64789 701.26 7.07189V11.9999H700.205V7.07189C700.205 5.13589 699.533 4.20789 697.677 4.20789C695.805 4.20789 695.164 5.64789 695.164 7.07189V11.9999H694.093V3.47189H695.164V4.89589C695.5 4.25589 696.364 3.23189 698.156 3.23189C699.692 3.23189 700.621 3.95189 701.021 5.08789C701.309 4.46389 702.252 3.23189 704.268 3.23189Z" fill="#E2E2E2"/>
<path d="M713.889 3.23189C716.577 3.23189 718.577 4.95989 718.385 8.17589H710.369C710.545 10.0799 711.857 11.3599 713.985 11.3599C715.633 11.3599 716.625 10.6719 717.121 9.53589H718.193C717.585 11.2959 716.001 12.2239 713.985 12.2239C711.505 12.2239 709.281 10.7999 709.281 7.72789C709.281 4.67189 711.393 3.23189 713.889 3.23189ZM710.369 7.2639H717.345C717.233 5.45589 716.001 4.09589 713.889 4.09589C711.777 4.09589 710.545 5.35989 710.369 7.2639Z" fill="#E2E2E2"/>
<path d="M724.695 3.23189C726.855 3.23189 728.103 4.63989 728.103 6.62389V11.9999H727.031V7.07189C727.031 5.13589 726.135 4.20789 724.215 4.20789C722.199 4.20789 721.399 5.64789 721.383 7.07189V11.9999H720.327V3.47189H721.383V4.97589C721.799 4.33589 722.823 3.23189 724.695 3.23189Z" fill="#E2E2E2"/>
<path d="M735.446 4.36789H732.582V9.11989C732.582 10.9919 733.158 11.3439 735.446 11.1199V12.0159C735.142 12.0959 734.886 12.1279 734.374 12.1279C732.342 12.1279 731.51 11.3759 731.51 9.11989V4.36789H729.558V3.47189H731.51V1.24789H732.582V3.47189H735.446V4.36789Z" fill="#E2E2E2"/>
<path d="M741.13 3.23189C743.21 3.23189 744.97 3.88789 744.97 6.57589V11.9999H743.898V10.6559C743.37 11.2959 742.218 12.2239 740.218 12.2239C737.994 12.2239 736.89 11.1839 736.89 9.72789C736.89 8.33589 737.69 7.05589 740.89 7.05589C741.946 7.05589 742.874 7.10389 743.898 7.1519V6.57589C743.898 4.83189 743.146 4.09589 741.13 4.09589C739.306 4.09589 738.618 4.76789 738.41 5.74389H737.338C737.514 4.12789 739.018 3.23189 741.13 3.23189ZM740.394 11.3599C742.17 11.3599 743.37 10.4799 743.898 9.7599V8.03189C742.794 7.96789 742.026 7.93589 741.05 7.93589C739.194 7.93589 737.994 8.3519 737.994 9.6799C737.994 10.8799 739.034 11.3599 740.394 11.3599Z" fill="#E2E2E2"/>
<path d="M747.53 0.191895H748.586V11.9999H747.53V0.191895Z" fill="#E2E2E2"/>
<path d="M765.616 11.9999L764.256 9.11989H757.376L756.016 11.9999H754.816L760.128 0.799894H761.504L766.816 11.9999H765.616ZM757.872 8.0639H763.76L760.816 1.82389L757.872 8.0639Z" fill="#E2E2E2"/>
<path d="M772.617 3.23189C774.777 3.23189 776.025 4.63989 776.025 6.62389V11.9999H774.953V7.07189C774.953 5.13589 774.057 4.20789 772.137 4.20789C770.121 4.20789 769.321 5.64789 769.305 7.07189V11.9999H768.249V3.47189H769.305V4.97589C769.721 4.33589 770.745 3.23189 772.617 3.23189Z" fill="#E2E2E2"/>
<path d="M782.036 3.23189C784.116 3.23189 785.876 3.88789 785.876 6.57589V11.9999H784.804V10.6559C784.276 11.2959 783.124 12.2239 781.124 12.2239C778.9 12.2239 777.796 11.1839 777.796 9.72789C777.796 8.33589 778.596 7.05589 781.796 7.05589C782.852 7.05589 783.78 7.10389 784.804 7.1519V6.57589C784.804 4.83189 784.052 4.09589 782.036 4.09589C780.212 4.09589 779.524 4.76789 779.316 5.74389H778.244C778.42 4.12789 779.924 3.23189 782.036 3.23189ZM781.3 11.3599C783.076 11.3599 784.276 10.4799 784.804 9.7599V8.03189C783.7 7.96789 782.932 7.93589 781.956 7.93589C780.1 7.93589 778.9 8.3519 778.9 9.6799C778.9 10.8799 779.94 11.3599 781.3 11.3599Z" fill="#E2E2E2"/>
<path d="M788.436 0.191895H789.492V11.9999H788.436V0.191895Z" fill="#E2E2E2"/>
<path d="M799.573 3.47189L794.565 14.6719H793.397L794.597 11.9999L790.773 3.47189H791.941L795.173 10.6879L798.421 3.47189H799.573Z" fill="#E2E2E2"/>
<path d="M804.406 7.23189C806.71 7.5999 808.422 7.69589 808.422 9.72789C808.422 11.3759 806.79 12.2239 804.566 12.2239C802.214 12.2239 800.214 11.4399 800.214 9.5519H801.286C801.286 10.8479 802.982 11.3279 804.566 11.3279C806.022 11.3279 807.35 10.8799 807.35 9.72789C807.35 8.46389 805.782 8.5279 804.086 8.2239C802.23 7.8879 800.502 7.67989 800.502 5.69589C800.502 4.17589 802.006 3.23189 804.15 3.23189C806.566 3.23189 807.974 4.17589 807.974 5.74389H806.918C806.918 4.84789 806.038 4.11189 804.15 4.11189C802.454 4.11189 801.574 4.73589 801.574 5.69589C801.574 6.79989 802.758 6.95989 804.406 7.23189Z" fill="#E2E2E2"/>
<path d="M814.962 4.36789H812.098V9.11989C812.098 10.9919 812.674 11.3439 814.962 11.1199V12.0159C814.658 12.0959 814.402 12.1279 813.89 12.1279C811.858 12.1279 811.026 11.3759 811.026 9.11989V4.36789H809.074V3.47189H811.026V1.24789H812.098V3.47189H814.962V4.36789Z" fill="#E2E2E2"/>
<path d="M0 48.9999C0 48.4476 0.447715 47.9999 1 47.9999H854C854.552 47.9999 855 48.4476 855 48.9999C855 49.5522 854.552 49.9999 854 49.9999H0.999976C0.447691 49.9999 0 49.5522 0 48.9999Z" fill="#2E00B0"/>
<path d="M671.384 85.9359C674.424 86.3199 675.992 86.6559 675.992 88.8959C675.992 90.8799 674.312 92.2239 670.952 92.2239C667.576 92.2239 665.576 91.0559 665.48 88.8959H666.552C666.68 90.8319 669.048 91.1999 670.952 91.1999C673.064 91.1999 674.888 90.6079 674.888 88.9759C674.888 87.4399 673.608 87.2799 671.208 86.9759C667.608 86.5279 665.864 86.1759 665.864 83.8239C665.864 81.6319 667.928 80.5599 670.552 80.5599C673.24 80.5599 675.208 81.4239 675.352 83.6799H674.28C674.104 82.1119 672.632 81.5999 670.552 81.5999C668.536 81.5999 666.952 82.1759 666.952 83.8239C666.952 85.4399 668.52 85.5679 671.384 85.9359Z" fill="#5C5B5E"/>
<path d="M682.245 83.2319C684.741 83.2319 686.533 84.7519 686.533 87.7279C686.533 90.7039 684.741 92.2239 682.245 92.2239C680.597 92.2239 679.493 91.4879 678.821 90.4959V94.6719H677.749V83.4719H678.821V84.9279C679.477 83.9519 680.581 83.2319 682.245 83.2319ZM682.117 91.3599C684.581 91.3599 685.461 89.6639 685.461 87.7279C685.461 85.7919 684.565 84.0959 682.117 84.0959C679.653 84.0959 678.661 85.8239 678.661 87.7279C678.661 89.6479 679.637 91.3599 682.117 91.3599Z" fill="#5C5B5E"/>
<path d="M692.052 83.2319C694.132 83.2319 695.892 83.8879 695.892 86.5759V91.9999H694.82V90.6559C694.292 91.2959 693.14 92.2239 691.14 92.2239C688.916 92.2239 687.812 91.1839 687.812 89.7279C687.812 88.3359 688.612 87.0559 691.812 87.0559C692.868 87.0559 693.796 87.1039 694.82 87.1519V86.5759C694.82 84.8319 694.068 84.0959 692.052 84.0959C690.228 84.0959 689.54 84.7679 689.332 85.7439H688.26C688.436 84.1279 689.94 83.2319 692.052 83.2319ZM691.316 91.3599C693.092 91.3599 694.292 90.4799 694.82 89.7599V88.0319C693.716 87.9679 692.948 87.9359 691.972 87.9359C690.116 87.9359 688.916 88.3519 688.916 89.6799C688.916 90.8799 689.956 91.3599 691.316 91.3599Z" fill="#5C5B5E"/>
<path d="M698.452 91.9999V83.4719H699.524V91.9999H698.452ZM698.98 82.0799C698.58 82.0799 698.308 81.8559 698.308 81.4559C698.308 81.0559 698.58 80.8319 698.98 80.8319C699.38 80.8319 699.668 81.0559 699.668 81.4559C699.668 81.8559 699.38 82.0799 698.98 82.0799Z" fill="#5C5B5E"/>
<path d="M706.445 83.2319C708.605 83.2319 709.853 84.6399 709.853 86.6239V91.9999H708.781V87.0719C708.781 85.1359 707.885 84.2079 705.965 84.2079C703.949 84.2079 703.149 85.6479 703.133 87.0719V91.9999H702.077V83.4719H703.133V84.9759C703.549 84.3359 704.573 83.2319 706.445 83.2319Z" fill="#5C5B5E"/>
<path d="M717.218 87.0399H722.002V87.9359H717.218V87.0399Z" fill="#5C5B5E"/>
<path d="M739.038 91.9999L737.678 89.1199H730.798L729.438 91.9999H728.238L733.55 80.7999H734.926L740.238 91.9999H739.038ZM731.294 88.0639H737.182L734.238 81.8239L731.294 88.0639Z" fill="#5C5B5E"/>
<path d="M741.671 91.9999V83.4719H742.743V91.9999H741.671ZM742.199 82.0799C741.799 82.0799 741.527 81.8559 741.527 81.4559C741.527 81.0559 741.799 80.8319 742.199 80.8319C742.599 80.8319 742.887 81.0559 742.887 81.4559C742.887 81.8559 742.599 82.0799 742.199 82.0799Z" fill="#5C5B5E"/>
<path d="M749.92 83.2319C750.208 83.2319 750.432 83.2639 750.72 83.2959V84.4479H750.64C750.304 84.3679 749.952 84.2879 749.488 84.2879C747.168 84.2879 746.368 85.8719 746.368 87.1679V91.9999H745.296V83.4719H746.368V85.1199C746.704 84.4799 747.696 83.2319 749.92 83.2319Z" fill="#5C5B5E"/>
<path d="M752.483 80.1919H753.539V91.9999H752.483V80.1919Z" fill="#5C5B5E"/>
<path d="M756.093 91.9999V83.4719H757.164V91.9999H756.093ZM756.62 82.0799C756.22 82.0799 755.948 81.8559 755.948 81.4559C755.948 81.0559 756.22 80.8319 756.62 80.8319C757.02 80.8319 757.308 81.0559 757.308 81.4559C757.308 81.8559 757.02 82.0799 756.62 82.0799Z" fill="#5C5B5E"/>
<path d="M764.086 83.2319C766.246 83.2319 767.494 84.6399 767.494 86.6239V91.9999H766.422V87.0719C766.422 85.1359 765.526 84.2079 763.606 84.2079C761.59 84.2079 760.789 85.6479 760.773 87.0719V91.9999H759.718V83.4719H760.773V84.9759C761.189 84.3359 762.214 83.2319 764.086 83.2319Z" fill="#5C5B5E"/>
<path d="M774.029 83.2319C776.717 83.2319 778.717 84.9599 778.525 88.1759H770.509C770.685 90.0799 771.997 91.3599 774.125 91.3599C775.773 91.3599 776.765 90.6719 777.261 89.5359H778.333C777.725 91.2959 776.141 92.2239 774.125 92.2239C771.645 92.2239 769.421 90.7999 769.421 87.7279C769.421 84.6719 771.533 83.2319 774.029 83.2319ZM770.509 87.2639H777.485C777.373 85.4559 776.141 84.0959 774.029 84.0959C771.917 84.0959 770.685 85.3599 770.509 87.2639Z" fill="#5C5B5E"/>
<path d="M356.2 80.7999C359.416 80.7999 360.296 82.5119 360.296 84.3519C360.296 86.0639 359.416 87.9039 356.2 87.9039H351.496V91.9999H350.44V80.7999H356.2ZM356.2 86.8319C358.472 86.8319 359.192 85.7919 359.192 84.3519C359.192 82.9119 358.456 81.8559 356.2 81.8559H351.496V86.8319H356.2Z" fill="#5C5B5E"/>
<path d="M366.185 83.2319C368.873 83.2319 370.873 84.9599 370.681 88.1759H362.665C362.841 90.0799 364.153 91.3599 366.281 91.3599C367.929 91.3599 368.922 90.6719 369.418 89.5359H370.49C369.882 91.2959 368.297 92.2239 366.281 92.2239C363.801 92.2239 361.578 90.7999 361.578 87.7279C361.578 84.6719 363.689 83.2319 366.185 83.2319ZM362.665 87.2639H369.642C369.53 85.4559 368.297 84.0959 366.185 84.0959C364.073 84.0959 362.841 85.3599 362.665 87.2639Z" fill="#5C5B5E"/>
<path d="M377.248 83.2319C377.536 83.2319 377.76 83.2639 378.048 83.2959V84.4479H377.968C377.632 84.3679 377.28 84.2879 376.816 84.2879C374.496 84.2879 373.696 85.8719 373.696 87.1679V91.9999H372.624V83.4719H373.696V85.1199C374.032 84.4799 375.024 83.2319 377.248 83.2319Z" fill="#5C5B5E"/>
<path d="M386.531 83.4719H387.587V91.9999H386.531V90.4799C386.115 91.1199 385.091 92.2239 383.219 92.2239C381.059 92.2239 379.811 90.8159 379.811 88.8479V83.4719H380.883V88.3839C380.883 90.3199 381.779 91.2479 383.699 91.2479C385.715 91.2479 386.515 89.8079 386.531 88.3999V83.4719Z" fill="#5C5B5E"/>
<path d="M394.952 87.0399H399.736V87.9359H394.952V87.0399Z" fill="#5C5B5E"/>
<path d="M415.733 90.9279V91.9999H407.253V80.7999H415.573V81.8559H408.324V85.7119H415.125V86.7839H408.324V90.9279H415.733Z" fill="#5C5B5E"/>
<path d="M421.747 91.3599C423.571 91.3599 424.739 90.4479 425.123 88.9599H426.211C425.715 91.1839 423.875 92.2239 421.747 92.2239C419.267 92.2239 417.171 90.7999 417.171 87.7279C417.171 84.6719 419.267 83.2319 421.747 83.2319C423.875 83.2319 425.715 84.2879 426.211 86.4959H425.123C424.739 85.0239 423.571 84.0959 421.747 84.0959C419.459 84.0959 418.227 85.5679 418.227 87.7279C418.227 89.8879 419.459 91.3599 421.747 91.3599Z" fill="#5C5B5E"/>
<path d="M432.06 83.2319C434.556 83.2319 436.652 84.6719 436.652 87.7279C436.652 90.7999 434.556 92.2239 432.06 92.2239C429.58 92.2239 427.484 90.7999 427.484 87.7279C427.484 84.6719 429.58 83.2319 432.06 83.2319ZM432.06 91.3599C434.348 91.3599 435.58 89.8879 435.58 87.7279C435.58 85.5679 434.348 84.0959 432.06 84.0959C429.772 84.0959 428.54 85.5679 428.54 87.7279C428.54 89.8879 429.772 91.3599 432.06 91.3599Z" fill="#5C5B5E"/>
<path d="M448.753 83.2319C450.897 83.2319 451.841 84.6399 451.841 86.6239V91.9999H450.785V87.0719C450.785 85.1359 450.129 84.2079 448.257 84.2079C446.401 84.2079 445.745 85.6479 445.745 87.0719V91.9999H444.689V87.0719C444.689 85.1359 444.017 84.2079 442.161 84.2079C440.289 84.2079 439.649 85.6479 439.649 87.0719V91.9999H438.577V83.4719H439.649V84.8959C439.985 84.2559 440.849 83.2319 442.641 83.2319C444.177 83.2319 445.105 83.9519 445.505 85.0879C445.793 84.4639 446.737 83.2319 448.753 83.2319Z" fill="#5C5B5E"/>
<path d="M464.581 83.2319C466.725 83.2319 467.669 84.6399 467.669 86.6239V91.9999H466.613V87.0719C466.613 85.1359 465.957 84.2079 464.085 84.2079C462.229 84.2079 461.573 85.6479 461.573 87.0719V91.9999H460.517V87.0719C460.517 85.1359 459.845 84.2079 457.989 84.2079C456.117 84.2079 455.477 85.6479 455.477 87.0719V91.9999H454.405V83.4719H455.477V84.8959C455.813 84.2559 456.677 83.2319 458.469 83.2319C460.005 83.2319 460.933 83.9519 461.333 85.0879C461.621 84.4639 462.565 83.2319 464.581 83.2319Z" fill="#5C5B5E"/>
<path d="M474.201 83.2319C476.889 83.2319 478.889 84.9599 478.697 88.1759H470.681C470.857 90.0799 472.169 91.3599 474.297 91.3599C475.945 91.3599 476.937 90.6719 477.433 89.5359H478.505C477.897 91.2959 476.313 92.2239 474.297 92.2239C471.817 92.2239 469.593 90.7999 469.593 87.7279C469.593 84.6719 471.705 83.2319 474.201 83.2319ZM470.681 87.2639H477.657C477.545 85.4559 476.313 84.0959 474.201 84.0959C472.089 84.0959 470.857 85.3599 470.681 87.2639Z" fill="#5C5B5E"/>
<path d="M485.263 83.2319C485.551 83.2319 485.775 83.2639 486.063 83.2959V84.4479H485.983C485.647 84.3679 485.295 84.2879 484.831 84.2879C482.511 84.2879 481.711 85.8719 481.711 87.1679V91.9999H480.639V83.4719H481.711V85.1199C482.047 84.4799 483.039 83.2319 485.263 83.2319Z" fill="#5C5B5E"/>
<path d="M491.607 91.3599C493.431 91.3599 494.599 90.4479 494.983 88.9599H496.071C495.575 91.1839 493.735 92.2239 491.607 92.2239C489.127 92.2239 487.031 90.7999 487.031 87.7279C487.031 84.6719 489.127 83.2319 491.607 83.2319C493.735 83.2319 495.575 84.2879 496.071 86.4959H494.983C494.599 85.0239 493.431 84.0959 491.607 84.0959C489.319 84.0959 488.087 85.5679 488.087 87.7279C488.087 89.8879 489.319 91.3599 491.607 91.3599Z" fill="#5C5B5E"/>
<path d="M501.951 83.2319C504.639 83.2319 506.639 84.9599 506.447 88.1759H498.431C498.607 90.0799 499.919 91.3599 502.047 91.3599C503.695 91.3599 504.687 90.6719 505.183 89.5359H506.255C505.647 91.2959 504.063 92.2239 502.047 92.2239C499.567 92.2239 497.343 90.7999 497.343 87.7279C497.343 84.6719 499.455 83.2319 501.951 83.2319ZM498.431 87.2639H505.407C505.295 85.4559 504.063 84.0959 501.951 84.0959C499.839 84.0959 498.607 85.3599 498.431 87.2639Z" fill="#5C5B5E"/>
<path d="M25.2 80.7999C28.416 80.7999 29.296 82.5119 29.296 84.3519C29.296 86.0639 28.416 87.9039 25.2 87.9039H20.496V91.9999H19.44V80.7999H25.2ZM25.2 86.8319C27.472 86.8319 28.192 85.7919 28.192 84.3519C28.192 82.9119 27.456 81.8559 25.2 81.8559H20.496V86.8319H25.2Z" fill="#5C5B5E"/>
<path d="M35.1855 83.2319C37.8735 83.2319 39.8735 84.9599 39.6815 88.1759H31.6655C31.8415 90.0799 33.1535 91.3599 35.2815 91.3599C36.9295 91.3599 37.9215 90.6719 38.4175 89.5359H39.4895C38.8815 91.2959 37.2975 92.2239 35.2815 92.2239C32.8015 92.2239 30.5775 90.7999 30.5775 87.7279C30.5775 84.6719 32.6895 83.2319 35.1855 83.2319ZM31.6655 87.2639H38.6415C38.5295 85.4559 37.2975 84.0959 35.1855 84.0959C33.0735 84.0959 31.8415 85.3599 31.6655 87.2639Z" fill="#5C5B5E"/>
<path d="M46.2477 83.2319C46.5357 83.2319 46.7598 83.2639 47.0478 83.2959V84.4479H46.9678C46.6318 84.3679 46.2798 84.2879 45.8158 84.2879C43.4958 84.2879 42.6958 85.8719 42.6958 87.1679V91.9999H41.6237V83.4719H42.6958V85.1199C43.0318 84.4799 44.0237 83.2319 46.2477 83.2319Z" fill="#5C5B5E"/>
<path d="M55.5312 83.4719H56.5872V91.9999H55.5312V90.4799C55.1153 91.1199 54.0912 92.2239 52.2192 92.2239C50.0592 92.2239 48.8112 90.8159 48.8112 88.8479V83.4719H49.8833V88.3839C49.8833 90.3199 50.7792 91.2479 52.6992 91.2479C54.7152 91.2479 55.5153 89.8079 55.5312 88.3999V83.4719Z" fill="#5C5B5E"/>
<path d="M63.9519 87.0399H68.7359V87.9359H63.9519V87.0399Z" fill="#5C5B5E"/>
<path d="M84.9885 80.7999V81.8559H80.7485V91.9999H79.6925V81.8559H75.4525V80.7999H84.9885Z" fill="#5C5B5E"/>
<path d="M89.5918 83.2319C92.2798 83.2319 94.2798 84.9599 94.0878 88.1759H86.0717C86.2477 90.0799 87.5598 91.3599 89.6878 91.3599C91.3358 91.3599 92.3278 90.6719 92.8238 89.5359H93.8958C93.2878 91.2959 91.7038 92.2239 89.6878 92.2239C87.2078 92.2239 84.9837 90.7999 84.9837 87.7279C84.9837 84.6719 87.0958 83.2319 89.5918 83.2319ZM86.0717 87.2639H93.0478C92.9358 85.4559 91.7038 84.0959 89.5918 84.0959C87.4798 84.0959 86.2477 85.3599 86.0717 87.2639Z" fill="#5C5B5E"/>
<path d="M103.81 91.9999H102.418L99.3617 88.4159L96.3057 91.9999H94.9137L98.6578 87.5999L95.1217 83.4719H96.5297L99.3617 86.7839L102.194 83.4719H103.586L100.05 87.5999L103.81 91.9999Z" fill="#5C5B5E"/>
<path d="M110.337 84.3679H107.473V89.1199C107.473 90.9919 108.049 91.3439 110.337 91.1199V92.0159C110.033 92.0959 109.777 92.1279 109.265 92.1279C107.233 92.1279 106.401 91.3759 106.401 89.1199V84.3679H104.449V83.4719H106.401V81.2479H107.473V83.4719H110.337V84.3679Z" fill="#5C5B5E"/>
<path d="M112.421 91.9999V83.4719H113.493V91.9999H112.421ZM112.949 82.0799C112.549 82.0799 112.277 81.8559 112.277 81.4559C112.277 81.0559 112.549 80.8319 112.949 80.8319C113.349 80.8319 113.637 81.0559 113.637 81.4559C113.637 81.8559 113.349 82.0799 112.949 82.0799Z" fill="#5C5B5E"/>
<path d="M116.046 80.1919H117.102V91.9999H116.046V80.1919Z" fill="#5C5B5E"/>
<path d="M124.612 80.7999H125.684V91.9999H124.612V80.7999Z" fill="#5C5B5E"/>
<path d="M132.773 83.2319C134.933 83.2319 136.181 84.6399 136.181 86.6239V91.9999H135.109V87.0719C135.109 85.1359 134.213 84.2079 132.293 84.2079C130.277 84.2079 129.477 85.6479 129.461 87.0719V91.9999H128.405V83.4719H129.461V84.9759C129.877 84.3359 130.901 83.2319 132.773 83.2319Z" fill="#5C5B5E"/>
<path d="M145.821 80.7999H146.893V91.9999H145.821V90.5439C145.165 91.5039 144.061 92.2239 142.397 92.2239C139.901 92.2239 138.109 90.7039 138.109 87.7279C138.109 84.7519 139.901 83.2319 142.397 83.2319C144.045 83.2319 145.149 83.9839 145.821 84.9759V80.7999ZM142.541 91.3599C144.989 91.3599 145.981 89.6479 145.981 87.7279C145.981 85.8239 145.005 84.0959 142.541 84.0959C140.061 84.0959 139.181 85.7919 139.181 87.7279C139.181 89.6639 140.077 91.3599 142.541 91.3599Z" fill="#5C5B5E"/>
<path d="M156.172 83.4719H157.228V91.9999H156.172V90.4799C155.756 91.1199 154.732 92.2239 152.86 92.2239C150.7 92.2239 149.452 90.8159 149.452 88.8479V83.4719H150.524V88.3839C150.524 90.3199 151.42 91.2479 153.34 91.2479C155.356 91.2479 156.156 89.8079 156.172 88.3999V83.4719Z" fill="#5C5B5E"/>
<path d="M163.188 87.2319C165.492 87.5999 167.204 87.6959 167.204 89.7279C167.204 91.3759 165.572 92.2239 163.348 92.2239C160.996 92.2239 158.996 91.4399 158.996 89.5519H160.068C160.068 90.8479 161.764 91.3279 163.348 91.3279C164.804 91.3279 166.132 90.8799 166.132 89.7279C166.132 88.4639 164.564 88.5279 162.868 88.2239C161.012 87.8879 159.284 87.6799 159.284 85.6959C159.284 84.1759 160.788 83.2319 162.932 83.2319C165.348 83.2319 166.756 84.1759 166.756 85.7439H165.7C165.7 84.8479 164.82 84.1119 162.932 84.1119C161.236 84.1119 160.356 84.7359 160.356 85.6959C160.356 86.7999 161.54 86.9599 163.188 87.2319Z" fill="#5C5B5E"/>
<path d="M173.743 84.3679H170.879V89.1199C170.879 90.9919 171.455 91.3439 173.743 91.1199V92.0159C173.439 92.0959 173.183 92.1279 172.671 92.1279C170.639 92.1279 169.807 91.3759 169.807 89.1199V84.3679H167.855V83.4719H169.807V81.2479H170.879V83.4719H173.743V84.3679Z" fill="#5C5B5E"/>
<path d="M180.451 83.2319C180.739 83.2319 180.963 83.2639 181.251 83.2959V84.4479H181.171C180.835 84.3679 180.483 84.2879 180.019 84.2879C177.699 84.2879 176.899 85.8719 176.899 87.1679V91.9999H175.827V83.4719H176.899V85.1199C177.235 84.4799 178.227 83.2319 180.451 83.2319Z" fill="#5C5B5E"/>
<path d="M191.011 83.4719L186.003 94.6719H184.835L186.035 91.9999L182.211 83.4719H183.379L186.611 90.6879L189.859 83.4719H191.011Z" fill="#5C5B5E"/>
</svg>
